{"glyphs":{"0":{"ha":794,"x_min":0,"x_max":0,"o":"m 501 719 b 397 824 501 778 456 824 b 293 719 340 824 293 778 l 293 339 b 397 235 293 282 340 235 b 501 339 456 235 501 282 m 761 339 b 397 -25 761 139 599 -25 b 33 339 197 -25 33 139 l 33 719 b 397 1083 33 921 197 1083 b 761 719 599 1083 761 921 "},"1":{"ha":493,"x_min":0,"x_max":0,"o":"m 321 0 b 192 129 250 0 192 57 l 192 624 b 38 646 142 597 79 604 b 38 829 -12 696 -12 779 l 229 1021 b 371 1049 267 1058 322 1069 b 451 929 419 1029 451 982 l 451 129 b 321 0 451 57 393 0 "},"2":{"ha":726,"x_min":0,"x_max":0,"o":"m 556 260 b 686 129 628 260 686 201 b 556 0 686 58 628 0 l 169 0 b 39 129 97 0 39 58 l 39 351 b 390 703 39 544 197 703 b 439 751 417 703 439 725 b 390 800 439 778 417 800 l 222 800 b 92 929 150 800 92 857 b 222 1060 92 1001 150 1060 l 390 1060 b 699 751 561 1060 699 921 b 390 443 699 581 561 443 b 299 351 340 443 299 401 l 299 260 l 556 260 "},"3":{"ha":782,"x_min":0,"x_max":0,"o":"m 657 586 b 754 339 718 521 754 435 b 392 -25 754 139 592 -25 b 28 339 192 -25 28 139 b 158 468 28 411 86 468 b 288 339 231 468 288 411 b 392 236 288 282 335 236 b 494 339 449 236 494 282 b 390 443 494 396 447 443 b 260 572 318 443 260 501 b 390 703 260 644 318 703 b 450 764 424 703 450 731 b 389 825 450 797 424 825 b 329 764 356 825 329 797 b 329 761 329 763 329 761 b 204 626 332 690 275 629 b 69 751 132 624 72 679 b 68 764 68 756 68 760 b 389 1085 68 940 213 1085 b 711 764 567 1085 711 940 b 657 586 711 699 690 638 "},"4":{"ha":732,"x_min":0,"x_max":0,"o":"m 561 764 b 690 633 632 764 690 706 l 690 129 b 561 0 690 57 632 0 b 431 129 489 0 431 57 l 431 233 l 138 233 b 28 294 93 233 51 256 b 19 419 3 332 1 379 l 292 985 b 465 1046 322 1050 400 1078 b 526 872 529 1015 557 938 l 343 493 l 431 493 l 431 633 b 561 764 431 706 489 764 "},"5":{"ha":782,"x_min":0,"x_max":0,"o":"m 392 703 b 754 339 592 703 754 539 b 392 -25 754 139 592 -25 b 28 339 190 -25 28 139 b 31 385 28 354 29 369 b 175 497 39 456 104 506 b 289 351 247 488 297 424 b 288 339 288 347 288 343 b 392 236 288 282 333 236 b 494 339 449 236 494 282 b 392 443 494 396 449 443 l 383 443 b 74 751 213 443 74 581 l 74 929 b 204 1060 74 1001 132 1060 l 569 1060 b 700 929 642 1060 700 1001 b 569 800 700 857 642 800 l 333 800 l 333 751 b 383 703 333 725 356 703 l 392 703 "},"6":{"ha":789,"x_min":0,"x_max":0,"o":"m 397 703 b 761 339 597 703 761 539 b 397 -25 761 139 597 -25 b 33 339 197 -25 33 139 b 35 347 33 342 33 344 b 33 351 33 349 33 350 l 33 721 b 397 1085 33 921 197 1085 b 747 819 560 1085 703 975 b 657 660 767 750 726 679 b 497 749 589 640 517 681 b 397 824 485 793 443 824 b 294 721 340 824 294 778 l 294 688 b 397 703 326 697 361 703 m 397 236 b 501 339 454 236 501 282 b 397 443 501 396 454 443 b 293 339 340 443 293 396 b 397 236 293 282 340 236 "},"7":{"ha":647,"x_min":0,"x_max":0,"o":"m 625 1000 b 635 876 649 963 653 917 l 281 76 b 161 0 258 28 211 0 b 108 11 144 0 126 3 b 43 182 43 40 14 117 l 317 799 l 131 799 b 0 929 58 799 0 857 b 131 1058 0 1001 58 1058 l 517 1058 b 625 1000 560 1058 601 1036 "},"8":{"ha":782,"x_min":0,"x_max":0,"o":"m 658 586 b 754 339 718 521 754 435 b 392 -25 754 139 592 -25 b 28 339 190 -25 28 139 b 125 586 28 435 64 521 b 71 763 90 636 71 697 b 392 1083 71 940 214 1083 b 711 763 568 1083 711 940 b 658 586 711 697 692 636 m 392 824 b 331 763 358 824 331 797 b 392 703 331 729 358 703 b 451 763 425 703 451 729 b 392 824 451 797 425 824 m 392 236 b 494 339 449 236 494 282 b 392 443 494 396 449 443 b 288 339 335 443 288 396 b 392 236 288 282 335 236 "},"9":{"ha":792,"x_min":0,"x_max":0,"o":"m 758 728 b 758 724 758 726 758 725 b 758 719 758 722 758 721 l 758 339 b 394 -25 758 138 594 -25 b 36 276 217 -25 65 101 b 142 426 24 347 71 414 b 292 321 213 439 279 392 b 394 235 300 271 343 235 b 499 339 451 235 499 282 l 499 385 b 401 372 467 376 435 372 b 46 728 206 372 46 532 b 401 1083 46 924 206 1083 b 758 728 599 1083 758 924 m 401 632 b 499 728 454 632 499 675 b 401 824 499 781 454 824 b 306 728 349 824 306 781 b 401 632 306 675 349 632 "},"\u0000":{"ha":0,"x_min":0,"x_max":0,"o":""},"\r":{"ha":417,"x_min":0,"x_max":0,"o":""}," ":{"ha":417,"x_min":0,"x_max":0,"o":""},"¡":{"ha":426,"x_min":0,"x_max":0,"o":"m 172 800 b 42 929 100 800 42 858 b 172 1060 42 1001 100 1060 b 301 929 244 1060 301 1001 b 172 800 301 858 244 800 m 172 0 b 42 129 100 0 42 58 l 42 664 b 172 794 42 736 100 794 b 301 664 244 794 301 736 l 301 129 b 172 0 301 58 244 0 "},"!":{"ha":426,"x_min":0,"x_max":0,"o":"m 256 260 b 385 131 328 260 385 201 b 256 0 385 58 328 0 b 125 131 183 0 125 58 b 256 260 125 201 183 260 m 256 1060 b 385 931 328 1060 385 1001 l 385 396 b 256 265 385 324 328 265 b 125 396 183 265 125 324 l 125 931 b 256 1060 125 1001 183 1060 "},"?":{"ha":803,"x_min":0,"x_max":0,"o":"m 426 260 b 556 131 497 260 556 201 b 426 0 556 58 497 0 b 296 131 354 0 296 58 b 426 260 296 201 354 260 m 426 1085 b 782 728 622 1085 782 925 b 556 397 782 578 688 449 l 556 396 b 426 265 556 324 497 265 b 296 396 354 265 296 324 l 296 503 b 426 632 296 574 354 632 b 522 728 479 632 522 675 b 426 825 522 782 479 825 b 329 728 372 825 329 782 b 335 699 329 718 332 708 b 251 535 357 631 319 557 b 88 617 183 513 110 549 b 69 728 76 653 69 690 b 426 1085 69 925 229 1085 "},"¿":{"ha":803,"x_min":0,"x_max":0,"o":"m 376 825 b 247 954 306 825 247 883 b 376 1085 247 1026 306 1085 b 507 954 449 1085 507 1026 b 376 825 507 883 449 825 m 376 0 b 21 357 181 0 21 160 b 247 688 21 507 115 636 l 247 689 b 376 819 247 761 306 819 b 507 689 449 819 507 761 l 507 582 b 376 453 507 511 449 453 b 281 357 324 453 281 410 b 376 260 281 303 324 260 b 474 357 431 260 474 303 b 468 386 474 367 471 376 b 551 550 446 454 483 528 b 715 468 619 572 693 536 b 733 357 726 432 733 394 b 376 0 733 160 574 0 "},"@":{"ha":1429,"x_min":0,"x_max":0,"o":"m 714 708 b 1035 388 890 708 1035 565 b 1035 383 1035 386 1035 385 b 1092 328 1035 353 1060 328 b 1149 385 1122 328 1149 353 b 1149 394 1149 388 1149 390 b 714 822 1146 631 951 822 b 281 388 475 822 281 628 b 714 -46 281 149 475 -46 b 972 39 808 -46 897 -17 b 1154 11 1029 82 1111 69 b 1126 -171 1196 -46 1185 -128 b 714 -306 1007 -258 864 -306 b 21 388 332 -306 21 6 b 714 1082 21 771 332 1082 b 1408 388 1097 1082 1408 771 b 1408 376 1408 385 1408 381 b 1092 68 1403 206 1263 68 b 903 129 1021 68 956 90 b 714 68 850 90 785 68 b 394 388 538 68 394 211 b 714 708 394 565 538 708 m 714 328 b 775 385 747 328 774 353 b 775 389 775 386 775 388 b 714 449 775 422 747 449 b 654 388 681 449 654 421 b 714 328 654 354 681 328 "},"#":{"ha":946,"x_min":0,"x_max":0,"o":"m 815 922 b 946 792 888 922 946 864 b 815 663 946 721 888 663 l 786 663 l 765 397 b 882 268 831 390 882 335 b 753 138 882 196 824 138 l 746 138 l 744 119 b 604 1 739 49 676 -6 b 485 138 533 7 481 68 l 399 138 l 397 119 b 258 1 392 49 329 -6 b 139 138 188 7 133 68 l 131 138 b 0 268 58 138 0 196 b 131 399 0 340 58 399 l 158 399 l 179 663 b 64 792 114 669 64 725 b 193 922 64 864 121 922 l 200 922 l 201 940 b 342 1060 207 1011 269 1065 b 461 922 413 1054 465 993 l 546 922 l 549 940 b 688 1060 554 1011 617 1065 b 807 922 758 1054 811 993 l 815 922 m 526 663 l 440 663 l 419 399 l 506 399 "},"$":{"ha":768,"x_min":0,"x_max":0,"o":"m 754 340 b 519 0 754 186 657 53 l 519 -11 b 390 -142 519 -83 463 -142 b 260 -11 318 -142 260 -83 l 260 0 b 25 340 124 53 25 186 b 29 392 25 358 26 375 b 176 503 39 463 104 513 b 286 356 247 492 296 426 b 285 340 286 350 285 346 b 390 236 285 283 332 236 b 494 340 447 236 494 283 b 390 446 494 399 447 446 b 71 765 214 446 71 589 b 260 1057 71 894 149 1007 l 260 1072 b 390 1201 260 1143 318 1201 b 519 1072 463 1201 519 1143 l 519 1057 b 703 832 611 1015 681 933 b 603 678 718 761 672 692 b 449 778 532 663 464 707 b 390 825 443 804 418 825 b 331 765 357 825 331 797 b 390 706 331 732 357 706 b 754 340 590 706 754 542 "},"%":{"ha":919,"x_min":0,"x_max":0,"o":"m 681 607 b 919 297 818 569 919 444 b 599 -24 919 119 776 -24 b 321 138 481 -24 376 40 l 250 43 b 68 19 206 -14 125 -25 b 43 201 11 63 0 144 l 238 454 b 0 764 100 490 0 615 b 319 1085 0 940 143 1085 b 597 924 438 1085 542 1019 l 663 1008 b 844 1033 706 1065 788 1076 b 868 851 901 989 913 908 l 681 607 m 319 825 b 260 764 286 825 260 797 b 319 703 260 731 286 703 b 381 764 353 703 381 731 b 319 825 381 797 353 825 m 599 236 b 660 297 633 236 660 263 b 599 357 660 331 633 357 b 539 297 565 357 539 331 b 599 236 539 263 565 236 "},"&":{"ha":1374,"x_min":0,"x_max":0,"o":"m 1117 682 b 1299 658 1174 725 1256 715 b 1363 421 1351 590 1374 506 b 1240 208 1351 336 1308 260 b 1026 142 1178 158 1101 138 b 522 -306 997 -110 782 -306 b 14 203 242 -306 14 -78 b 178 576 14 349 76 482 b 117 753 140 628 119 689 b 203 983 114 839 144 921 b 426 1085 261 1046 342 1082 b 758 775 604 1092 753 953 b 758 763 758 772 758 767 b 628 633 758 690 700 633 b 499 765 556 635 499 693 l 499 765 b 499 767 499 765 499 765 b 436 825 497 800 469 826 b 393 806 414 825 400 813 b 376 763 388 799 376 783 b 396 719 378 740 389 726 b 440 703 403 713 418 703 b 574 589 507 706 565 656 b 471 446 582 522 538 460 b 274 203 357 422 274 319 b 522 -46 274 65 385 -46 b 771 203 660 -46 771 65 b 756 288 771 232 765 261 b 706 276 739 292 719 289 b 682 236 688 264 683 246 b 694 192 681 226 681 208 b 671 10 738 135 728 53 b 489 32 614 -35 532 -24 b 424 269 436 100 413 185 b 546 483 435 354 478 431 b 996 425 686 590 889 565 b 1082 414 1017 399 1056 393 b 1106 454 1100 426 1104 444 b 1093 499 1107 464 1107 482 b 1117 682 1049 556 1060 638 "},"*":{"ha":761,"x_min":0,"x_max":0,"o":"m 747 793 b 664 631 769 725 732 653 l 590 606 l 636 544 b 607 363 678 486 665 404 b 426 392 549 321 468 333 l 381 453 l 335 392 b 154 363 293 333 213 321 b 125 544 96 404 83 486 l 171 606 l 97 631 b 14 793 29 653 -8 725 b 178 876 36 863 110 899 l 250 853 l 250 931 b 381 1060 250 1001 308 1060 b 511 931 453 1060 511 1001 l 511 853 l 583 876 b 747 793 651 899 725 863 "},"(":{"ha":542,"x_min":0,"x_max":0,"o":"m 397 235 b 528 106 469 235 528 176 b 397 -25 528 33 469 -25 l 397 -25 b 33 339 197 -25 33 139 l 33 719 b 397 1083 33 921 197 1083 l 397 1083 b 528 954 469 1083 528 1025 b 397 824 528 882 469 824 l 397 824 b 293 719 340 824 293 776 l 293 339 b 397 235 293 282 340 235 "},")":{"ha":542,"x_min":0,"x_max":0,"o":"m 144 824 b 14 954 72 824 14 882 b 144 1083 14 1025 72 1083 l 144 1083 b 508 719 344 1083 508 921 l 508 339 b 144 -25 508 139 344 -25 l 144 -25 b 14 106 72 -25 14 33 b 144 235 14 176 72 235 l 144 235 b 249 339 201 235 249 282 l 249 719 b 144 824 249 776 201 824 "},"[":{"ha":556,"x_min":0,"x_max":0,"o":"m 406 0 l 171 0 b 42 129 100 0 42 58 l 42 929 b 171 1060 42 1001 100 1060 l 406 1060 b 535 929 478 1060 535 1001 b 406 800 535 857 478 800 l 301 800 l 301 260 l 406 260 b 535 129 478 260 535 201 b 406 0 535 58 478 0 "},"]":{"ha":556,"x_min":0,"x_max":0,"o":"m 385 0 l 150 0 b 21 129 79 0 21 58 b 150 260 21 201 79 260 l 254 260 l 254 800 l 150 800 b 21 929 79 800 21 857 b 150 1060 21 1001 79 1060 l 385 1060 b 414 1056 394 1060 404 1058 b 514 929 471 1043 514 992 l 514 129 b 385 0 514 58 457 0 "},"{":{"ha":628,"x_min":0,"x_max":0,"o":"m 485 235 b 614 106 556 235 614 178 b 485 -25 614 33 556 -25 b 119 339 283 -25 119 139 l 119 375 b 99 403 119 390 108 401 b 0 529 40 418 0 469 b 99 656 0 589 40 642 b 119 683 108 658 119 668 l 119 719 b 485 1083 119 921 283 1083 b 614 954 556 1083 614 1026 b 485 824 614 882 556 824 b 381 719 426 824 381 778 l 381 631 b 332 529 381 590 361 554 b 381 429 361 506 381 469 l 381 339 b 485 235 381 282 426 235 "},"}":{"ha":628,"x_min":0,"x_max":0,"o":"m 143 235 b 247 339 201 235 247 282 l 247 429 b 296 529 247 469 267 506 b 247 631 267 554 247 590 l 247 719 b 143 824 247 778 201 824 b 14 954 72 824 14 882 b 143 1083 14 1026 72 1083 b 508 719 344 1083 508 921 l 508 683 b 529 656 508 668 519 658 b 628 529 588 642 628 589 b 529 403 628 469 588 418 b 508 375 519 401 508 390 l 508 339 b 143 -25 508 139 344 -25 b 14 106 72 -25 14 33 b 143 235 14 178 72 235 "},"_":{"ha":665,"x_min":0,"x_max":0,"o":"m 606 50 b 735 -81 676 50 735 -8 b 606 -210 735 -151 676 -210 l 606 -210 l 61 -210 l 61 -210 b -69 -81 -11 -210 -69 -151 b 61 50 -69 -8 -11 50 l 61 50 l 606 50 "},"-":{"ha":558,"x_min":0,"x_max":0,"o":"m 129 443 b 0 574 58 443 0 501 b 129 703 0 644 58 703 l 129 703 l 429 703 l 429 703 b 558 574 500 703 558 644 b 429 443 558 501 500 443 l 429 443 l 129 443 "},"+":{"ha":763,"x_min":0,"x_max":0,"o":"m 618 488 b 749 357 690 488 749 429 b 618 228 749 286 690 228 l 511 228 l 511 119 b 381 -10 511 49 453 -10 b 251 119 310 -10 251 49 l 251 228 l 143 228 b 14 357 72 228 14 286 b 143 488 14 429 72 488 l 251 488 l 251 594 b 381 725 251 667 310 725 b 511 594 453 725 511 667 l 511 488 l 618 488 "},"−":{"ha":651,"x_min":0,"x_max":0,"o":"m 508 488 b 638 357 579 488 638 429 b 508 228 638 286 579 228 l 508 228 l 144 228 l 144 228 b 14 357 72 228 14 286 b 144 488 14 429 72 488 l 144 488 l 508 488 "},"×":{"ha":686,"x_min":0,"x_max":0,"o":"m 635 222 b 635 39 685 172 685 89 b 450 39 583 -12 501 -12 l 343 146 l 236 39 b 51 39 185 -12 103 -12 b 51 222 1 89 1 172 l 160 329 l 68 421 b 68 606 17 472 17 554 b 251 606 118 656 201 656 l 343 514 l 435 606 b 618 606 486 656 568 656 b 618 421 669 554 669 472 l 526 329 l 635 222 "},"÷":{"ha":763,"x_min":0,"x_max":0,"o":"m 514 129 b 383 0 514 57 456 0 b 254 129 313 0 254 57 b 299 228 254 168 271 203 l 144 228 b 14 357 72 228 14 286 b 144 488 14 429 72 488 l 293 488 b 249 585 265 511 249 546 b 378 715 249 657 307 715 b 508 585 450 715 508 657 b 464 488 508 546 492 511 l 618 488 b 749 357 690 488 749 429 b 618 228 749 286 690 228 l 469 228 b 514 129 496 203 514 168 "},"=":{"ha":700,"x_min":0,"x_max":0,"o":"m 556 335 b 686 204 628 335 686 276 b 556 75 686 133 628 75 l 144 75 b 14 204 72 75 14 133 b 144 335 14 276 72 335 l 556 335 m 556 626 b 686 496 628 626 686 568 b 556 367 686 424 628 367 l 144 367 b 14 496 72 367 14 424 b 144 626 14 568 72 626 l 556 626 "},"≠":{"ha":821,"x_min":0,"x_max":0,"o":"m 676 335 b 807 204 749 335 807 276 b 676 75 807 133 749 75 l 419 75 l 369 -31 b 196 -93 339 -96 261 -124 b 132 75 133 -62 106 11 b 14 204 65 81 14 136 b 143 335 14 276 72 335 l 256 335 l 269 367 l 143 367 b 14 496 72 367 14 424 b 143 626 14 568 72 626 l 393 626 l 450 747 b 624 810 482 813 558 840 b 686 636 689 779 717 701 l 681 626 b 807 496 750 624 807 567 b 676 367 807 424 749 367 l 557 367 l 543 335 l 676 335 "},"A":{"ha":810,"x_min":0,"x_max":0,"o":"m 801 172 b 779 47 817 129 808 82 b 660 1 750 13 706 -4 l 404 39 b 294 186 333 49 285 115 b 442 296 306 257 371 307 l 488 289 l 406 529 l 254 89 b 89 7 231 21 157 -15 b 8 172 21 31 -15 104 l 282 972 b 406 1060 300 1025 350 1060 b 528 972 460 1060 510 1025 l 801 172 "},"Á":{"ha":810,"x_min":0,"x_max":0,"o":"m 801 172 b 779 47 817 129 808 82 b 660 1 750 13 706 -4 l 404 39 b 294 186 333 49 285 115 b 442 296 306 257 371 307 l 488 289 l 406 529 l 254 89 b 89 7 231 21 157 -15 b 8 172 21 31 -15 104 l 282 972 b 406 1060 300 1025 350 1060 b 528 972 460 1060 510 1025 l 801 172 m 482 1322 b 614 1301 524 1353 583 1343 b 592 1169 644 1258 635 1200 l 472 1083 b 340 1104 431 1053 371 1063 b 363 1236 310 1147 319 1206 l 363 1236 l 482 1322 "},"Â":{"ha":810,"x_min":0,"x_max":0,"o":"m 801 172 b 779 47 817 129 808 82 b 660 1 750 13 706 -4 l 404 39 b 294 186 333 49 285 115 b 442 296 306 257 371 307 l 488 289 l 406 529 l 254 89 b 89 7 231 21 157 -15 b 8 172 21 31 -15 104 l 282 972 b 406 1060 300 1025 350 1060 b 528 972 460 1060 510 1025 l 801 172 m 581 1201 b 601 1069 622 1171 632 1113 b 469 1049 571 1028 513 1018 l 406 1094 l 340 1049 b 208 1069 299 1018 239 1028 b 231 1201 179 1113 188 1171 l 350 1288 b 461 1288 383 1311 428 1311 l 581 1201 "},"À":{"ha":810,"x_min":0,"x_max":0,"o":"m 801 172 b 779 47 817 129 808 82 b 660 1 750 13 706 -4 l 404 39 b 294 186 333 49 285 115 b 442 296 306 257 371 307 l 488 289 l 406 529 l 254 89 b 89 7 231 21 157 -15 b 8 172 21 31 -15 104 l 282 972 b 406 1060 300 1025 350 1060 b 528 972 460 1060 510 1025 l 801 172 m 463 1238 b 483 1106 504 1207 514 1147 b 351 1083 453 1063 394 1053 l 232 1169 b 211 1301 190 1200 181 1260 b 343 1324 242 1344 300 1354 l 463 1238 "},"Ã":{"ha":810,"x_min":0,"x_max":0,"o":"m 801 172 b 779 47 817 129 808 82 b 660 1 750 13 706 -4 l 404 39 b 294 186 333 49 285 115 b 442 296 306 257 371 307 l 488 289 l 406 529 l 254 89 b 89 7 231 21 157 -15 b 8 172 21 31 -15 104 l 282 972 b 406 1060 300 1025 350 1060 b 528 972 460 1060 510 1025 l 801 172 m 571 1285 b 635 1167 621 1269 650 1217 b 507 1057 621 1121 579 1065 b 376 1085 446 1050 403 1072 b 371 1088 376 1085 371 1088 l 365 1090 b 358 1093 363 1092 361 1093 b 256 1060 336 1063 294 1047 b 193 1178 206 1075 178 1128 b 319 1288 206 1222 247 1278 b 450 1260 381 1294 425 1272 b 456 1257 450 1260 456 1257 l 463 1253 b 468 1250 464 1253 467 1251 b 571 1285 492 1281 532 1296 "},"Ä":{"ha":810,"x_min":0,"x_max":0,"o":"m 801 172 b 779 47 817 129 808 82 b 660 1 750 13 706 -4 l 404 39 b 294 186 333 49 285 115 b 442 296 306 257 371 307 l 488 289 l 406 529 l 254 89 b 89 7 231 21 157 -15 b 8 172 21 31 -15 104 l 282 972 b 406 1060 300 1025 350 1060 b 528 972 460 1060 510 1025 l 801 172 m 300 1244 b 403 1142 357 1244 403 1199 b 300 1040 403 1086 357 1040 b 197 1142 243 1040 197 1086 b 300 1244 197 1199 243 1244 m 511 1244 b 614 1142 568 1244 614 1199 b 511 1040 614 1086 568 1040 b 408 1142 454 1040 408 1086 b 511 1244 408 1199 454 1244 "},"a":{"ha":806,"x_min":0,"x_max":0,"o":"m 403 1083 b 767 719 604 1083 767 919 l 767 129 b 638 -1 767 57 708 -1 b 507 129 565 -1 507 57 l 507 325 l 299 325 l 299 129 b 169 -1 299 57 240 -1 b 39 129 97 -1 39 57 l 39 719 b 403 1083 39 919 203 1083 m 507 585 l 507 719 b 403 824 507 776 461 824 b 299 719 346 824 299 776 l 299 585 "},"á":{"ha":806,"x_min":0,"x_max":0,"o":"m 403 1083 b 767 719 604 1083 767 919 l 767 129 b 638 -1 767 57 708 -1 b 507 129 565 -1 507 57 l 507 325 l 299 325 l 299 129 b 169 -1 299 57 240 -1 b 39 129 97 -1 39 57 l 39 719 b 403 1083 39 919 203 1083 m 507 585 l 507 719 b 403 824 507 776 461 824 b 299 719 346 824 299 776 l 299 585 m 608 1324 b 740 1303 650 1354 710 1344 b 718 1171 771 1260 761 1201 l 599 1085 b 467 1106 557 1054 497 1064 b 489 1238 436 1149 446 1207 l 489 1238 l 608 1324 "},"â":{"ha":806,"x_min":0,"x_max":0,"o":"m 403 1083 b 767 719 604 1083 767 919 l 767 129 b 638 -1 767 57 708 -1 b 507 129 565 -1 507 57 l 507 325 l 299 325 l 299 129 b 169 -1 299 57 240 -1 b 39 129 97 -1 39 57 l 39 719 b 403 1083 39 919 203 1083 m 507 585 l 507 719 b 403 824 507 776 461 824 b 299 719 346 824 299 776 l 299 585 m 579 1244 b 600 1113 621 1214 631 1156 b 468 1092 569 1071 511 1061 l 404 1138 l 339 1092 b 207 1113 297 1061 238 1071 b 229 1244 178 1156 186 1214 l 349 1331 b 460 1331 382 1354 426 1354 l 579 1244 "},"ä":{"ha":806,"x_min":0,"x_max":0,"o":"m 403 1083 b 767 719 604 1083 767 919 l 767 129 b 638 -1 767 57 708 -1 b 507 129 565 -1 507 57 l 507 325 l 299 325 l 299 129 b 169 -1 299 57 240 -1 b 39 129 97 -1 39 57 l 39 719 b 403 1083 39 919 203 1083 m 507 585 l 507 719 b 403 824 507 776 461 824 b 299 719 346 824 299 776 l 299 585 m 297 1282 b 400 1179 354 1282 400 1236 b 297 1078 400 1124 354 1078 b 194 1179 240 1078 194 1124 b 297 1282 194 1236 240 1282 m 508 1282 b 611 1179 565 1282 611 1236 b 508 1078 611 1124 565 1078 b 406 1179 451 1078 406 1124 b 508 1282 406 1236 451 1282 "},"à":{"ha":806,"x_min":0,"x_max":0,"o":"m 403 1083 b 767 719 604 1083 767 919 l 767 129 b 638 -1 767 57 708 -1 b 507 129 565 -1 507 57 l 507 325 l 299 325 l 299 129 b 169 -1 299 57 240 -1 b 39 129 97 -1 39 57 l 39 719 b 403 1083 39 919 203 1083 m 507 585 l 507 719 b 403 824 507 776 461 824 b 299 719 346 824 299 776 l 299 585 m 308 1236 b 329 1104 350 1206 360 1146 b 197 1082 299 1061 240 1051 l 78 1168 b 57 1300 36 1199 26 1258 b 189 1322 88 1343 146 1353 l 308 1236 "},"ã":{"ha":806,"x_min":0,"x_max":0,"o":"m 403 1083 b 767 719 604 1083 767 919 l 767 129 b 638 -1 767 57 708 -1 b 507 129 565 -1 507 57 l 507 325 l 299 325 l 299 129 b 169 -1 299 57 240 -1 b 39 129 97 -1 39 57 l 39 719 b 403 1083 39 919 203 1083 m 507 585 l 507 719 b 403 824 507 776 461 824 b 299 719 346 824 299 776 l 299 585 m 593 1307 b 657 1189 643 1292 672 1239 b 529 1079 643 1143 601 1088 b 399 1107 468 1072 425 1094 b 393 1110 399 1107 393 1110 l 388 1113 b 381 1115 385 1114 383 1115 b 278 1082 358 1085 317 1069 b 215 1200 228 1097 200 1150 b 342 1310 228 1244 269 1300 b 472 1282 403 1317 447 1294 b 478 1279 472 1282 478 1279 l 485 1275 b 490 1272 486 1275 489 1274 b 593 1307 514 1303 554 1318 "},"B":{"ha":747,"x_min":0,"x_max":0,"o":"m 608 625 b 731 356 683 560 731 463 b 374 0 731 160 569 0 l 171 0 b 42 131 100 0 42 58 l 42 931 b 79 1022 42 965 56 997 b 172 1060 104 1046 138 1060 b 271 1060 172 1060 271 1060 b 618 713 463 1060 618 904 b 608 625 618 682 615 654 m 374 260 b 471 356 426 260 471 303 b 401 449 471 400 443 436 b 313 536 358 461 325 494 b 339 658 300 579 310 625 b 358 713 353 674 358 692 b 301 794 358 750 335 782 l 301 260 l 374 260 "},"b":{"ha":740,"x_min":0,"x_max":0,"o":"m 724 360 b 364 0 724 161 563 0 l 172 0 b 42 131 100 0 42 58 l 42 931 b 172 1060 42 1001 100 1060 b 299 1060 172 1060 299 1060 b 636 728 485 1060 636 911 b 617 615 636 689 629 651 b 724 360 683 549 724 458 m 364 260 b 464 360 419 260 464 304 b 396 453 464 401 436 439 b 310 550 351 468 319 504 b 351 674 301 596 317 643 b 376 728 361 682 376 700 b 303 800 376 765 342 799 l 303 260 l 364 260 "},"C":{"ha":1092,"x_min":0,"x_max":0,"o":"m 1010 440 b 1061 264 1072 406 1096 326 b 575 -26 964 85 778 -26 b 21 529 269 -26 21 222 b 575 1083 21 835 269 1083 b 1061 794 776 1083 964 972 b 1010 618 1096 732 1072 653 b 833 669 946 583 867 607 b 575 824 781 764 682 824 b 281 529 413 824 281 690 b 575 235 281 367 413 235 b 833 388 682 235 782 293 b 1010 440 868 451 946 474 "},"Ç":{"ha":1092,"x_min":0,"x_max":0,"o":"m 1010 440 b 1061 264 1072 406 1096 326 b 692 -14 983 119 847 19 l 693 -61 b 575 -179 693 -126 640 -179 b 457 -61 510 -179 457 -126 l 457 -14 b 21 529 207 40 21 263 b 575 1083 21 835 269 1083 b 1061 794 776 1083 964 972 b 1010 618 1096 732 1072 653 b 833 669 946 583 867 607 b 575 824 781 764 682 824 b 281 529 413 824 281 690 b 575 235 281 367 413 235 b 833 388 682 235 782 293 b 1010 440 868 451 946 474 "},"c":{"ha":789,"x_min":0,"x_max":0,"o":"m 397 1083 b 761 719 599 1083 761 921 l 761 707 b 632 576 761 635 703 576 b 501 707 560 576 501 635 l 501 719 b 397 824 501 778 454 824 b 293 719 340 824 293 778 l 293 339 b 397 235 293 282 340 235 b 501 339 454 235 501 282 l 501 353 b 632 483 501 425 560 483 b 761 353 703 483 761 425 l 761 339 b 397 -25 761 139 599 -25 b 33 339 197 -25 33 139 l 33 719 b 397 1083 33 921 197 1083 "},"ç":{"ha":789,"x_min":0,"x_max":0,"o":"m 397 1083 b 761 719 599 1083 761 921 l 761 707 b 632 576 761 635 703 576 b 501 707 560 576 501 635 l 501 719 b 397 824 501 778 454 824 b 293 719 340 824 293 778 l 293 339 b 397 235 293 282 340 235 b 501 339 454 235 501 282 l 501 353 b 632 483 501 425 560 483 b 761 353 703 483 761 425 l 761 339 b 514 -6 761 179 658 43 l 515 -61 b 397 -179 515 -126 463 -179 b 279 -61 332 -179 279 -126 l 279 -4 b 33 339 136 44 33 181 l 33 719 b 397 1083 33 921 197 1083 "},"D":{"ha":840,"x_min":0,"x_max":0,"o":"m 290 1060 b 819 531 582 1060 819 822 b 290 0 819 239 582 0 l 171 0 b 42 131 100 0 42 58 l 42 931 b 171 1060 42 1001 100 1060 l 290 1060 m 301 261 b 560 531 444 267 560 385 b 301 800 560 675 444 794 l 301 261 "},"d":{"ha":794,"x_min":0,"x_max":0,"o":"m 243 1060 b 774 531 535 1060 774 822 b 243 0 774 239 535 0 l 172 0 b 42 131 100 0 42 58 l 42 931 b 172 1060 42 1001 100 1060 l 243 1060 m 301 267 b 514 531 422 293 514 401 b 301 794 514 660 422 767 l 301 267 "},"E":{"ha":694,"x_min":0,"x_max":0,"o":"m 557 260 b 686 131 628 260 686 203 b 557 0 686 58 628 0 l 172 0 b 42 131 100 0 42 58 l 42 931 b 172 1060 42 1001 100 1060 l 532 1060 b 661 931 603 1060 661 1001 b 532 800 661 858 603 800 l 303 800 l 303 703 l 486 703 b 617 574 558 703 617 646 b 486 443 617 501 558 443 l 303 443 l 303 260 l 557 260 "},"É":{"ha":694,"x_min":0,"x_max":0,"o":"m 557 260 b 686 131 628 260 686 203 b 557 0 686 58 628 0 l 172 0 b 42 131 100 0 42 58 l 42 931 b 172 1060 42 1001 100 1060 l 532 1060 b 661 931 603 1060 661 1001 b 532 800 661 858 603 800 l 303 800 l 303 703 l 486 703 b 617 574 558 703 617 646 b 486 443 617 501 558 443 l 303 443 l 303 260 l 557 260 m 436 1322 b 568 1301 478 1353 538 1343 b 546 1169 599 1258 589 1200 l 426 1083 b 294 1104 385 1053 325 1063 b 317 1236 264 1147 274 1206 l 317 1236 l 436 1322 "},"Ê":{"ha":694,"x_min":0,"x_max":0,"o":"m 557 260 b 686 131 628 260 686 203 b 557 0 686 58 628 0 l 172 0 b 42 131 100 0 42 58 l 42 931 b 172 1060 42 1001 100 1060 l 532 1060 b 661 931 603 1060 661 1001 b 532 800 661 858 603 800 l 303 800 l 303 703 l 486 703 b 617 574 558 703 617 646 b 486 443 617 501 558 443 l 303 443 l 303 260 l 557 260 m 526 1238 b 547 1106 568 1207 578 1149 b 415 1085 517 1064 458 1054 l 351 1131 l 286 1085 b 154 1106 244 1054 185 1064 b 176 1238 125 1149 133 1207 l 296 1324 b 407 1324 329 1347 374 1347 l 526 1238 "},"Ë":{"ha":694,"x_min":0,"x_max":0,"o":"m 557 260 b 686 131 628 260 686 203 b 557 0 686 58 628 0 l 172 0 b 42 131 100 0 42 58 l 42 931 b 172 1060 42 1001 100 1060 l 532 1060 b 661 931 603 1060 661 1001 b 532 800 661 858 603 800 l 303 800 l 303 703 l 486 703 b 617 574 558 703 617 646 b 486 443 617 501 558 443 l 303 443 l 303 260 l 557 260 m 246 1269 b 349 1167 303 1269 349 1224 b 246 1065 349 1111 303 1065 b 143 1167 189 1065 143 1111 b 246 1269 143 1224 189 1269 m 457 1269 b 560 1167 514 1269 560 1224 b 457 1065 560 1111 514 1065 b 354 1167 400 1065 354 1111 b 457 1269 354 1224 400 1269 "},"È":{"ha":694,"x_min":0,"x_max":0,"o":"m 557 260 b 686 131 628 260 686 203 b 557 0 686 58 628 0 l 172 0 b 42 131 100 0 42 58 l 42 931 b 172 1060 42 1001 100 1060 l 532 1060 b 661 931 603 1060 661 1001 b 532 800 661 858 603 800 l 303 800 l 303 703 l 486 703 b 617 574 558 703 617 646 b 486 443 617 501 558 443 l 303 443 l 303 260 l 557 260 m 393 1239 b 414 1107 435 1208 444 1149 b 282 1085 383 1064 325 1054 l 163 1171 b 142 1303 121 1201 111 1261 b 274 1325 172 1346 231 1356 l 393 1239 "},"e":{"ha":681,"x_min":0,"x_max":0,"o":"m 546 260 b 675 131 617 260 675 201 b 546 0 675 58 617 0 l 343 0 b 35 308 172 0 35 139 l 35 751 b 343 1060 35 922 172 1060 l 524 1060 b 653 931 594 1060 653 1001 b 524 800 653 858 594 800 l 343 800 b 294 751 315 800 294 778 l 294 703 l 478 703 b 608 574 550 703 608 644 b 478 443 608 501 550 443 l 294 443 l 294 308 b 343 260 294 282 315 260 l 546 260 "},"é":{"ha":681,"x_min":0,"x_max":0,"o":"m 546 260 b 675 131 617 260 675 201 b 546 0 675 58 617 0 l 343 0 b 35 308 172 0 35 139 l 35 751 b 343 1060 35 922 172 1060 l 524 1060 b 653 931 594 1060 653 1001 b 524 800 653 858 594 800 l 343 800 b 294 751 315 800 294 778 l 294 703 l 478 703 b 608 574 550 703 608 644 b 478 443 608 501 550 443 l 294 443 l 294 308 b 343 260 294 282 315 260 l 546 260 m 431 1322 b 563 1301 472 1353 532 1343 b 540 1169 593 1258 583 1200 l 421 1083 b 289 1104 379 1053 319 1063 b 311 1236 258 1147 268 1206 l 311 1236 l 431 1322 "},"ê":{"ha":681,"x_min":0,"x_max":0,"o":"m 546 260 b 675 131 617 260 675 201 b 546 0 675 58 617 0 l 343 0 b 35 308 172 0 35 139 l 35 751 b 343 1060 35 922 172 1060 l 524 1060 b 653 931 594 1060 653 1001 b 524 800 653 858 594 800 l 343 800 b 294 751 315 800 294 778 l 294 703 l 478 703 b 608 574 550 703 608 644 b 478 443 608 501 550 443 l 294 443 l 294 308 b 343 260 294 282 315 260 l 546 260 m 592 1238 b 613 1106 633 1207 643 1149 b 481 1085 582 1064 524 1054 l 417 1131 l 351 1085 b 219 1106 310 1054 250 1064 b 242 1238 190 1149 199 1207 l 361 1324 b 472 1324 394 1347 439 1347 l 592 1238 "},"ë":{"ha":681,"x_min":0,"x_max":0,"o":"m 546 260 b 675 131 617 260 675 201 b 546 0 675 58 617 0 l 343 0 b 35 308 172 0 35 139 l 35 751 b 343 1060 35 922 172 1060 l 524 1060 b 653 931 594 1060 653 1001 b 524 800 653 858 594 800 l 343 800 b 294 751 315 800 294 778 l 294 703 l 478 703 b 608 574 550 703 608 644 b 478 443 608 501 550 443 l 294 443 l 294 308 b 343 260 294 282 315 260 l 546 260 m 267 1269 b 369 1167 324 1269 369 1224 b 267 1065 369 1111 324 1065 b 164 1167 210 1065 164 1111 b 267 1269 164 1224 210 1269 m 478 1269 b 581 1167 535 1269 581 1224 b 478 1065 581 1111 535 1065 b 375 1167 421 1065 375 1111 b 478 1269 375 1224 421 1269 "},"è":{"ha":681,"x_min":0,"x_max":0,"o":"m 546 260 b 675 131 617 260 675 201 b 546 0 675 58 617 0 l 343 0 b 35 308 172 0 35 139 l 35 751 b 343 1060 35 922 172 1060 l 524 1060 b 653 931 594 1060 653 1001 b 524 800 653 858 594 800 l 343 800 b 294 751 315 800 294 778 l 294 703 l 478 703 b 608 574 550 703 608 644 b 478 443 608 501 550 443 l 294 443 l 294 308 b 343 260 294 282 315 260 l 546 260 m 463 1238 b 483 1106 504 1207 514 1147 b 351 1083 453 1063 394 1053 l 232 1169 b 211 1301 190 1200 181 1260 b 343 1324 242 1344 300 1354 l 463 1238 "},"F":{"ha":669,"x_min":0,"x_max":0,"o":"m 532 799 l 303 799 l 303 701 l 486 701 b 617 572 558 701 617 644 b 486 442 617 500 558 442 l 303 442 l 303 129 b 172 -1 303 57 244 -1 b 42 129 100 -1 42 57 l 42 929 b 172 1058 42 1000 100 1058 l 532 1058 b 661 929 603 1058 661 1000 b 532 799 661 857 603 799 "},"f":{"ha":658,"x_min":0,"x_max":0,"o":"m 347 801 b 299 753 321 801 299 779 l 299 704 l 483 704 b 613 574 554 704 613 646 b 483 444 613 503 554 444 l 299 444 l 299 131 b 168 1 299 60 240 1 b 39 131 97 1 39 60 l 39 753 b 347 1061 39 922 178 1061 l 528 1061 b 658 931 600 1061 658 1003 b 528 801 658 858 600 801 l 347 801 "},"G":{"ha":1143,"x_min":0,"x_max":0,"o":"m 999 658 b 1129 529 1071 658 1129 601 b 575 -25 1129 224 881 -25 b 21 529 269 -25 21 224 b 575 1083 21 835 269 1083 b 1007 875 744 1083 901 1007 b 988 693 1053 819 1043 738 b 804 713 932 649 850 657 b 575 824 749 783 665 824 b 281 529 413 824 281 692 b 575 235 281 367 413 235 b 839 399 690 235 790 301 l 576 399 b 446 529 504 399 446 457 b 576 658 446 601 504 658 l 999 658 "},"g":{"ha":789,"x_min":0,"x_max":0,"o":"m 761 529 b 761 339 761 529 761 339 b 397 -25 761 139 599 -25 b 33 339 197 -25 33 139 l 33 719 b 397 1083 33 921 197 1083 b 742 838 553 1083 692 985 b 661 672 765 769 729 696 b 496 753 593 649 519 685 b 397 824 482 796 442 824 b 293 719 340 824 293 776 l 293 339 b 397 235 293 282 340 235 b 501 339 454 235 501 282 l 501 399 l 428 399 b 299 529 357 399 299 457 b 428 660 299 601 357 660 l 632 660 b 761 529 703 660 761 601 "},"H":{"ha":744,"x_min":0,"x_max":0,"o":"m 572 1060 b 703 931 644 1060 703 1001 l 703 131 b 572 0 703 58 644 0 b 443 131 501 0 443 58 l 443 443 l 301 443 l 301 131 b 171 0 301 58 243 0 b 42 131 99 0 42 58 l 42 931 b 171 1060 42 1001 99 1060 b 301 931 243 1060 301 1001 l 301 703 l 443 703 l 443 931 b 572 1060 443 1001 501 1060 "},"h":{"ha":772,"x_min":0,"x_max":0,"o":"m 600 1060 b 731 931 672 1060 731 1001 l 731 131 b 600 0 731 58 672 0 b 471 131 529 0 471 58 l 471 443 l 301 443 l 301 131 b 171 0 301 58 243 0 b 42 131 99 0 42 58 l 42 931 b 171 1060 42 1001 99 1060 b 301 931 243 1060 301 1001 l 301 703 l 471 703 l 471 931 b 600 1060 471 1001 529 1060 "},"I":{"ha":343,"x_min":0,"x_max":0,"o":"m 171 1060 b 301 929 243 1060 301 1001 b 171 800 301 858 243 800 b 42 929 99 800 42 858 b 171 1060 42 1001 99 1060 m 171 794 b 301 664 243 794 301 736 l 301 129 b 171 0 301 58 243 0 b 42 129 99 0 42 58 l 42 664 b 171 794 42 736 99 794 "},"Í":{"ha":343,"x_min":0,"x_max":0,"o":"m 42 931 b 171 1060 42 1001 99 1060 b 301 931 243 1060 301 1001 l 301 931 l 301 131 l 301 131 b 171 0 301 58 243 0 b 42 131 99 0 42 58 l 42 131 l 42 931 m 235 1322 b 367 1301 276 1353 336 1343 b 344 1169 397 1258 388 1200 l 225 1083 b 93 1104 183 1053 124 1063 b 115 1236 63 1147 72 1206 l 115 1236 l 235 1322 "},"Î":{"ha":343,"x_min":0,"x_max":0,"o":"m 42 931 b 171 1060 42 1001 99 1060 b 301 931 243 1060 301 1001 l 301 931 l 301 131 l 301 131 b 171 0 301 58 243 0 b 42 131 99 0 42 58 l 42 131 l 42 931 m 346 1203 b 367 1071 388 1172 397 1114 b 235 1050 336 1029 278 1019 l 171 1096 l 106 1050 b -26 1071 64 1019 4 1029 b -4 1203 -56 1114 -47 1172 l 115 1289 b 226 1289 149 1313 193 1313 l 346 1203 "},"Ï":{"ha":343,"x_min":0,"x_max":0,"o":"m 65 1244 b 168 1142 122 1244 168 1199 b 65 1040 168 1086 122 1040 b -37 1142 8 1040 -37 1086 b 65 1244 -37 1199 8 1244 m 276 1244 b 379 1142 333 1244 379 1199 b 276 1040 379 1086 333 1040 b 174 1142 219 1040 174 1086 b 276 1244 174 1199 219 1244 m 42 931 b 171 1060 42 1001 99 1060 b 301 931 243 1060 301 1001 l 301 931 l 301 131 l 301 131 b 171 0 301 58 243 0 b 42 131 99 0 42 58 l 42 131 l 42 931 "},"Ì":{"ha":343,"x_min":0,"x_max":0,"o":"m 42 931 b 171 1060 42 1001 99 1060 b 301 931 243 1060 301 1001 l 301 931 l 301 131 l 301 131 b 171 0 301 58 243 0 b 42 131 99 0 42 58 l 42 131 l 42 931 m 228 1238 b 249 1106 269 1207 279 1147 b 117 1083 218 1063 160 1053 l -3 1169 b -24 1301 -44 1200 -54 1260 b 108 1324 7 1344 65 1354 l 228 1238 "},"i":{"ha":343,"x_min":0,"x_max":0,"o":"m 42 931 b 171 1060 42 1001 99 1060 b 301 931 243 1060 301 1001 l 301 931 l 301 131 l 301 131 b 171 0 301 58 243 0 b 42 131 99 0 42 58 l 42 131 l 42 931 "},"í":{"ha":343,"x_min":0,"x_max":0,"o":"m 42 931 b 171 1060 42 1001 99 1060 b 301 931 243 1060 301 1001 l 301 931 l 301 131 l 301 131 b 171 0 301 58 243 0 b 42 131 99 0 42 58 l 42 131 l 42 931 m 235 1322 b 367 1301 276 1353 336 1343 b 344 1169 397 1258 388 1200 l 225 1083 b 93 1104 183 1053 124 1063 b 115 1236 63 1147 72 1206 l 115 1236 l 235 1322 "},"î":{"ha":343,"x_min":0,"x_max":0,"o":"m 42 931 b 171 1060 42 1001 99 1060 b 301 931 243 1060 301 1001 l 301 931 l 301 131 l 301 131 b 171 0 301 58 243 0 b 42 131 99 0 42 58 l 42 131 l 42 931 m 346 1203 b 367 1071 388 1172 397 1114 b 235 1050 336 1029 278 1019 l 171 1096 l 106 1050 b -26 1071 64 1019 4 1029 b -4 1203 -56 1114 -47 1172 l 115 1289 b 226 1289 149 1313 193 1313 l 346 1203 "},"ï":{"ha":343,"x_min":0,"x_max":0,"o":"m 65 1244 b 168 1142 122 1244 168 1199 b 65 1040 168 1086 122 1040 b -37 1142 8 1040 -37 1086 b 65 1244 -37 1199 8 1244 m 276 1244 b 379 1142 333 1244 379 1199 b 276 1040 379 1086 333 1040 b 174 1142 219 1040 174 1086 b 276 1244 174 1199 219 1244 m 42 931 b 171 1060 42 1001 99 1060 b 301 931 243 1060 301 1001 l 301 931 l 301 131 l 301 131 b 171 0 301 58 243 0 b 42 131 99 0 42 58 l 42 131 l 42 931 "},"ì":{"ha":343,"x_min":0,"x_max":0,"o":"m 42 931 b 171 1060 42 1001 99 1060 b 301 931 243 1060 301 1001 l 301 931 l 301 131 l 301 131 b 171 0 301 58 243 0 b 42 131 99 0 42 58 l 42 131 l 42 931 m 228 1238 b 249 1106 269 1207 279 1147 b 117 1083 218 1063 160 1053 l -3 1169 b -24 1301 -44 1200 -54 1260 b 108 1324 7 1344 65 1354 l 228 1238 "},"ı":{"ha":343,"x_min":0,"x_max":0,"o":"m 171 794 b 301 664 243 794 301 736 l 301 129 b 171 0 301 58 243 0 b 42 129 99 0 42 58 l 42 664 b 171 794 42 736 99 794 "},"J":{"ha":778,"x_min":0,"x_max":0,"o":"m 608 1060 b 739 929 681 1060 739 1001 l 739 339 b 375 -25 739 139 575 -25 b 11 339 174 -25 11 139 b 24 435 11 372 15 404 b 183 526 42 504 114 546 b 274 367 253 507 293 436 b 271 339 272 358 271 349 b 375 235 271 282 317 235 b 479 339 432 235 479 282 l 479 800 l 396 800 b 267 929 324 800 267 857 b 396 1060 267 1001 324 1060 l 608 1060 "},"j":{"ha":778,"x_min":0,"x_max":0,"o":"m 24 435 b 183 526 42 504 114 546 b 274 367 253 507 293 436 l 274 367 b 271 339 272 358 271 349 b 375 235 271 282 317 235 b 479 339 432 235 479 282 l 479 929 l 479 929 b 608 1060 479 1001 538 1060 b 739 929 681 1060 739 1001 l 739 929 l 739 339 b 375 -25 739 139 575 -25 b 11 339 174 -25 11 139 b 24 435 11 372 15 404 "},"K":{"ha":738,"x_min":0,"x_max":0,"o":"m 718 197 b 674 19 754 136 735 56 b 494 64 611 -18 532 3 l 301 388 l 301 131 b 172 0 301 58 243 0 b 42 131 100 0 42 58 l 42 931 b 172 1060 42 1001 100 1060 b 301 931 243 1060 301 1001 l 301 753 l 474 1004 b 654 1038 514 1063 596 1078 b 688 857 714 997 729 915 l 493 572 l 718 197 "},"k":{"ha":782,"x_min":0,"x_max":0,"o":"m 579 629 b 761 314 688 565 761 449 l 761 129 b 631 0 761 57 703 0 b 501 129 560 0 501 57 l 501 314 b 397 418 501 372 454 418 l 301 418 l 301 129 b 172 0 301 57 243 0 b 42 129 100 0 42 57 l 42 929 b 172 1058 42 1001 100 1058 b 301 929 243 1058 301 1001 l 301 678 l 306 678 l 501 997 b 681 1040 539 1058 619 1078 b 722 861 742 1003 760 922 l 579 629 "},"L":{"ha":778,"x_min":0,"x_max":0,"o":"m 754 435 b 767 339 763 404 767 372 b 403 -25 767 139 604 -25 b 39 339 203 -25 39 139 l 39 929 l 39 929 b 169 1060 39 1001 97 1060 b 299 929 240 1060 299 1001 l 299 929 l 299 339 b 403 235 299 282 346 235 b 507 339 461 235 507 282 b 504 367 507 349 506 358 l 504 367 b 594 526 485 436 525 507 b 754 435 664 546 736 504 "},"l":{"ha":686,"x_min":0,"x_max":0,"o":"m 556 260 b 686 131 628 260 686 203 b 556 0 686 58 628 0 l 171 0 b 42 131 100 0 42 58 l 42 931 b 171 1060 42 1001 100 1060 b 301 931 243 1060 301 1001 l 301 260 l 556 260 "},"M":{"ha":1274,"x_min":0,"x_max":0,"o":"m 871 1083 b 1235 719 1072 1083 1235 919 l 1235 129 b 1106 -1 1235 57 1176 -1 b 975 129 1033 -1 975 57 l 975 719 b 871 824 975 776 928 824 b 767 719 814 824 767 776 l 767 129 b 636 -1 767 57 708 -1 b 507 129 565 -1 507 57 l 507 719 b 403 824 507 776 460 824 b 299 719 344 824 299 776 l 299 129 b 168 -1 299 57 240 -1 b 39 129 97 -1 39 57 l 39 719 b 403 1083 39 919 201 1083 b 636 997 492 1083 574 1051 b 871 1083 700 1051 782 1083 "},"m":{"ha":1040,"x_min":0,"x_max":0,"o":"m 1017 147 b 907 1 1028 76 978 11 b 760 113 835 -8 769 42 l 721 396 l 642 182 b 519 97 624 131 575 97 b 399 182 465 97 417 131 l 319 396 l 281 113 b 133 1 271 42 204 -8 b 22 147 63 11 13 76 l 133 947 b 247 1060 142 1007 189 1053 b 383 975 307 1065 363 1031 l 519 604 l 657 975 b 792 1060 676 1031 733 1065 b 907 947 851 1053 899 1007 l 1017 147 "},"N":{"ha":806,"x_min":0,"x_max":0,"o":"m 39 128 l 39 719 b 403 1083 39 919 201 1083 b 767 719 603 1083 767 919 l 767 128 l 767 128 b 638 -1 767 56 708 -1 b 507 128 565 -1 507 56 l 507 128 l 507 719 b 403 824 507 776 460 824 b 299 719 346 824 299 776 l 299 128 l 299 128 b 168 -1 299 56 240 -1 b 39 128 97 -1 39 56 "},"Ñ":{"ha":806,"x_min":0,"x_max":0,"o":"m 39 128 l 39 719 b 403 1083 39 919 201 1083 b 767 719 603 1083 767 919 l 767 128 l 767 128 b 638 -1 767 56 708 -1 b 507 128 565 -1 507 56 l 507 128 l 507 719 b 403 824 507 776 460 824 b 299 719 346 824 299 776 l 299 128 l 299 128 b 168 -1 299 56 240 -1 b 39 128 97 -1 39 56 m 593 1308 b 657 1190 643 1293 672 1240 b 529 1081 643 1144 601 1089 b 399 1108 468 1074 425 1096 b 393 1111 399 1108 393 1111 l 388 1114 b 381 1117 385 1115 383 1117 b 278 1083 358 1086 317 1071 b 215 1201 228 1099 200 1151 b 342 1311 228 1246 269 1301 b 472 1283 403 1318 447 1296 b 478 1281 472 1283 478 1281 l 485 1276 b 490 1274 486 1276 489 1275 b 593 1308 514 1304 554 1319 "},"n":{"ha":806,"x_min":0,"x_max":0,"o":"m 635 1060 b 764 929 706 1060 764 1001 l 764 129 b 668 4 764 71 725 19 b 522 64 611 -11 551 14 l 301 446 l 301 129 b 171 0 301 58 243 0 b 42 129 100 0 42 58 l 42 929 b 138 1054 42 988 81 1039 b 283 994 194 1069 254 1044 l 504 613 l 504 929 b 635 1060 504 1001 563 1060 "},"ñ":{"ha":806,"x_min":0,"x_max":0,"o":"m 635 1060 b 764 929 706 1060 764 1001 l 764 129 b 668 4 764 71 725 19 b 522 64 611 -11 551 14 l 301 446 l 301 129 b 171 0 301 58 243 0 b 42 129 100 0 42 58 l 42 929 b 138 1054 42 988 81 1039 b 283 994 194 1069 254 1044 l 504 613 l 504 929 b 635 1060 504 1001 563 1060 m 579 1258 b 643 1140 629 1243 658 1190 b 515 1031 629 1094 588 1039 b 385 1058 454 1024 411 1046 b 379 1061 385 1058 379 1061 l 374 1064 b 367 1067 371 1065 369 1067 b 264 1033 344 1036 303 1021 b 201 1151 214 1049 186 1101 b 328 1261 214 1196 256 1251 b 458 1233 389 1268 433 1246 b 464 1231 458 1233 464 1231 l 471 1226 b 476 1224 472 1226 475 1225 b 579 1258 500 1254 540 1269 "},"O":{"ha":1150,"x_min":0,"x_max":0,"o":"m 869 529 b 575 824 869 692 738 824 b 281 529 413 824 281 692 b 575 235 281 367 413 235 b 869 529 738 235 869 367 m 575 1083 b 1129 529 881 1083 1129 835 b 575 -25 1129 224 881 -25 b 21 529 269 -25 21 224 b 575 1083 21 835 269 1083 "},"Ó":{"ha":1150,"x_min":0,"x_max":0,"o":"m 869 529 b 575 824 869 692 738 824 b 281 529 413 824 281 692 b 575 235 281 367 413 235 b 869 529 738 235 869 367 m 575 1083 b 1129 529 881 1083 1129 835 b 575 -25 1129 224 881 -25 b 21 529 269 -25 21 224 b 575 1083 21 835 269 1083 m 813 1322 b 944 1301 854 1353 914 1343 b 922 1169 975 1258 965 1200 l 803 1083 b 671 1104 761 1053 701 1063 b 693 1236 640 1147 650 1206 l 693 1236 l 813 1322 "},"Ô":{"ha":1150,"x_min":0,"x_max":0,"o":"m 869 529 b 575 824 869 692 738 824 b 281 529 413 824 281 692 b 575 235 281 367 413 235 b 869 529 738 235 869 367 m 575 1083 b 1129 529 881 1083 1129 835 b 575 -25 1129 224 881 -25 b 21 529 269 -25 21 224 b 575 1083 21 835 269 1083 m 753 1250 b 774 1118 794 1219 804 1161 b 642 1097 743 1076 685 1067 l 578 1143 l 513 1097 b 381 1118 471 1067 411 1076 b 403 1250 351 1161 360 1219 l 522 1336 b 633 1336 556 1360 600 1360 l 753 1250 "},"Ö":{"ha":1150,"x_min":0,"x_max":0,"o":"m 869 529 b 575 824 869 692 738 824 b 281 529 413 824 281 692 b 575 235 281 367 413 235 b 869 529 738 235 869 367 m 575 1083 b 1129 529 881 1083 1129 835 b 575 -25 1129 224 881 -25 b 21 529 269 -25 21 224 b 575 1083 21 835 269 1083 m 469 1285 b 572 1182 526 1285 572 1239 b 469 1081 572 1126 526 1081 b 367 1182 413 1081 367 1126 b 469 1285 367 1239 413 1285 m 681 1285 b 783 1182 738 1285 783 1239 b 681 1081 783 1126 738 1081 b 578 1182 624 1081 578 1126 b 681 1285 578 1239 624 1285 "},"Ò":{"ha":1150,"x_min":0,"x_max":0,"o":"m 869 529 b 575 824 869 692 738 824 b 281 529 413 824 281 692 b 575 235 281 367 413 235 b 869 529 738 235 869 367 m 575 1083 b 1129 529 881 1083 1129 835 b 575 -25 1129 224 881 -25 b 21 529 269 -25 21 224 b 575 1083 21 835 269 1083 m 460 1238 b 481 1106 501 1207 511 1147 b 349 1083 450 1063 392 1053 l 229 1169 b 208 1301 188 1200 178 1260 b 340 1324 239 1344 297 1354 l 460 1238 "},"Õ":{"ha":1150,"x_min":0,"x_max":0,"o":"m 869 529 b 575 824 869 692 738 824 b 281 529 413 824 281 692 b 575 235 281 367 413 235 b 869 529 738 235 869 367 m 575 1083 b 1129 529 881 1083 1129 835 b 575 -25 1129 224 881 -25 b 21 529 269 -25 21 224 b 575 1083 21 835 269 1083 m 765 1311 b 829 1193 815 1296 844 1243 b 701 1083 815 1147 774 1092 b 571 1111 640 1076 597 1099 b 565 1114 571 1111 565 1114 l 560 1117 b 553 1119 557 1118 556 1119 b 450 1086 531 1089 489 1074 b 388 1204 400 1101 372 1154 b 514 1314 400 1249 442 1304 b 644 1286 575 1321 619 1299 b 650 1283 644 1286 650 1283 l 657 1279 b 663 1276 658 1279 661 1278 b 765 1311 686 1307 726 1322 "},"o":{"ha":794,"x_min":0,"x_max":0,"o":"m 501 719 b 397 824 501 776 454 824 b 293 719 340 824 293 776 l 293 339 b 397 235 293 282 340 235 b 501 339 454 235 501 282 m 761 339 b 397 -25 761 138 599 -25 b 33 339 197 -25 33 138 l 33 719 b 397 1083 33 919 197 1083 b 761 719 599 1083 761 919 "},"ó":{"ha":794,"x_min":0,"x_max":0,"o":"m 501 719 b 397 824 501 776 454 824 b 293 719 340 824 293 776 l 293 339 b 397 235 293 282 340 235 b 501 339 454 235 501 282 m 761 339 b 397 -25 761 138 599 -25 b 33 339 197 -25 33 138 l 33 719 b 397 1083 33 919 197 1083 b 761 719 599 1083 761 919 m 607 1322 b 739 1301 649 1353 708 1343 b 717 1169 769 1258 760 1200 l 597 1083 b 465 1104 556 1053 496 1063 b 488 1236 435 1147 444 1206 l 488 1236 l 607 1322 "},"ô":{"ha":794,"x_min":0,"x_max":0,"o":"m 501 719 b 397 824 501 776 454 824 b 293 719 340 824 293 776 l 293 339 b 397 235 293 282 340 235 b 501 339 454 235 501 282 m 761 339 b 397 -25 761 138 599 -25 b 33 339 197 -25 33 138 l 33 719 b 397 1083 33 919 197 1083 b 761 719 599 1083 761 919 m 575 1246 b 596 1114 617 1215 626 1157 b 464 1093 565 1072 507 1063 l 400 1139 l 335 1093 b 203 1114 293 1063 233 1072 b 225 1246 174 1157 182 1215 l 344 1332 b 456 1332 378 1356 422 1356 l 575 1246 "},"ö":{"ha":794,"x_min":0,"x_max":0,"o":"m 501 719 b 397 824 501 776 454 824 b 293 719 340 824 293 776 l 293 339 b 397 235 293 282 340 235 b 501 339 454 235 501 282 m 761 339 b 397 -25 761 138 599 -25 b 33 339 197 -25 33 138 l 33 719 b 397 1083 33 919 197 1083 b 761 719 599 1083 761 919 m 292 1281 b 394 1178 349 1281 394 1235 b 292 1076 394 1122 349 1076 b 189 1178 235 1076 189 1122 b 292 1281 189 1235 235 1281 m 503 1281 b 606 1178 560 1281 606 1235 b 503 1076 606 1122 560 1076 b 400 1178 446 1076 400 1122 b 503 1281 400 1235 446 1281 "},"ò":{"ha":794,"x_min":0,"x_max":0,"o":"m 501 719 b 397 824 501 776 454 824 b 293 719 340 824 293 776 l 293 339 b 397 235 293 282 340 235 b 501 339 454 235 501 282 m 761 339 b 397 -25 761 138 599 -25 b 33 339 197 -25 33 138 l 33 719 b 397 1083 33 919 197 1083 b 761 719 599 1083 761 919 m 308 1238 b 329 1106 350 1207 360 1147 b 197 1083 299 1063 240 1053 l 78 1169 b 57 1301 36 1200 26 1260 b 189 1324 88 1344 146 1354 l 308 1238 "},"õ":{"ha":794,"x_min":0,"x_max":0,"o":"m 501 719 b 397 824 501 776 454 824 b 293 719 340 824 293 776 l 293 339 b 397 235 293 282 340 235 b 501 339 454 235 501 282 m 761 339 b 397 -25 761 138 599 -25 b 33 339 197 -25 33 138 l 33 719 b 397 1083 33 919 197 1083 b 761 719 599 1083 761 919 m 590 1307 b 654 1189 640 1292 669 1239 b 526 1079 640 1143 599 1088 b 396 1107 465 1072 422 1094 b 390 1110 396 1107 390 1110 l 385 1113 b 378 1115 382 1114 381 1115 b 275 1082 356 1085 314 1069 b 213 1200 225 1097 197 1150 b 339 1310 225 1244 267 1300 b 469 1282 400 1317 444 1294 b 475 1279 469 1282 475 1279 l 482 1275 b 488 1272 483 1275 486 1274 b 590 1307 511 1303 551 1318 "},"ø":{"ha":881,"x_min":0,"x_max":0,"o":"m 829 1032 b 853 850 886 989 896 907 l 799 779 b 804 719 803 760 804 740 l 804 339 b 440 -25 804 138 640 -25 b 232 40 363 -25 292 -1 b 131 -8 207 8 169 -8 b 51 18 103 -8 75 0 b 28 200 -6 61 -17 143 l 82 272 b 76 339 78 293 76 315 l 76 719 b 440 1083 76 919 239 1083 b 653 1015 519 1083 593 1058 b 829 1032 697 1065 774 1074 m 336 603 l 494 808 b 440 824 478 818 460 824 b 336 719 383 824 336 776 m 544 447 l 390 247 b 440 235 406 239 422 235 b 544 339 497 235 544 281 "},"P":{"ha":740,"x_min":0,"x_max":0,"o":"m 172 0 b 42 131 100 0 42 58 l 42 929 b 172 1060 42 1001 100 1060 l 372 1060 b 729 704 569 1060 729 900 b 372 349 729 508 569 349 l 301 349 l 301 131 b 172 0 301 58 243 0 m 301 608 l 372 608 b 469 704 425 608 469 651 b 372 800 469 757 425 800 l 301 800 "},"p":{"ha":740,"x_min":0,"x_max":0,"o":"m 372 1060 b 729 704 569 1060 729 900 b 474 361 729 544 626 407 b 313 450 404 342 332 381 b 401 611 292 519 332 592 b 469 704 442 624 469 661 b 372 800 469 757 426 800 l 301 800 l 301 129 b 171 0 301 58 243 0 b 42 129 99 0 42 58 l 42 929 b 171 1060 42 1001 99 1060 l 372 1060 "},"Q":{"ha":1150,"x_min":0,"x_max":0,"o":"m 1088 199 b 1088 14 1139 147 1138 65 b 903 15 1036 -36 954 -36 l 863 56 b 575 -25 779 4 681 -25 b 21 529 269 -25 21 224 b 575 1083 21 835 269 1083 b 1129 529 881 1083 1129 835 b 1047 239 1129 422 1099 324 m 575 235 b 669 250 608 235 640 240 l 604 317 b 604 500 553 368 553 450 b 788 500 656 551 738 551 l 854 433 b 869 529 864 464 869 496 b 575 824 869 692 738 824 b 281 529 413 824 281 692 b 575 235 281 367 413 235 "},"q":{"ha":801,"x_min":0,"x_max":0,"o":"m 778 199 b 778 15 828 149 828 65 b 686 -24 751 -10 718 -24 b 593 15 653 -24 619 -10 l 583 26 b 397 -25 528 -7 465 -25 b 33 339 196 -25 33 139 l 33 719 b 397 1083 33 921 196 1083 b 761 719 597 1083 761 921 l 761 339 b 744 232 761 301 756 265 l 778 199 m 293 339 b 389 235 293 285 336 239 b 419 374 371 282 381 336 b 501 411 442 397 471 410 l 501 719 b 397 824 501 776 454 824 b 293 719 340 824 293 776 l 293 339 "},"R":{"ha":750,"x_min":0,"x_max":0,"o":"m 607 624 b 729 354 683 558 729 461 l 729 129 b 600 -1 729 57 671 -1 b 469 129 528 -1 469 57 l 469 354 b 401 447 469 399 442 435 b 313 535 358 460 325 493 b 339 657 300 578 310 624 b 358 711 353 672 358 690 b 301 793 358 749 333 781 l 301 129 b 171 -1 301 57 243 -1 b 42 129 99 -1 42 57 l 42 929 b 79 1021 42 964 54 996 b 171 1058 104 1044 136 1058 b 272 1058 171 1058 272 1058 b 618 711 463 1058 618 903 b 607 624 618 681 614 653 "},"r":{"ha":776,"x_min":0,"x_max":0,"o":"m 729 704 b 665 499 729 628 706 557 b 756 261 722 435 756 353 l 756 129 b 625 0 756 58 697 0 b 496 129 554 0 496 58 l 496 261 b 408 360 496 310 463 347 b 307 482 350 372 308 424 b 400 611 306 542 343 594 b 469 704 442 624 469 660 b 372 800 469 757 426 800 l 301 800 l 301 129 b 172 0 301 58 244 0 b 42 129 100 0 42 58 l 42 929 b 172 1060 42 1001 100 1060 l 372 1060 b 729 704 569 1060 729 900 "},"S":{"ha":715,"x_min":0,"x_max":0,"o":"m 457 1061 b 588 932 529 1061 588 1003 b 457 801 588 860 529 801 l 457 801 l 336 801 b 288 753 310 801 288 781 b 336 704 288 726 310 704 b 688 353 529 704 688 547 b 336 1 688 160 529 1 l 171 1 l 171 1 b 40 132 99 1 40 60 b 171 261 40 204 99 261 l 171 261 l 336 261 b 428 353 386 261 428 303 b 336 444 428 404 386 444 b 28 753 165 444 28 583 b 336 1061 28 924 165 1061 l 457 1061 "},"s":{"ha":769,"x_min":0,"x_max":0,"o":"m 28 378 b 169 493 35 449 99 500 b 286 350 242 486 293 422 l 286 350 b 285 336 285 346 285 340 b 393 235 288 278 336 232 b 467 268 421 236 447 247 b 494 343 485 289 494 315 b 386 443 492 400 443 446 b 56 751 210 438 61 576 b 364 1082 50 928 188 1076 b 685 840 514 1088 649 986 l 685 840 b 590 683 703 771 660 700 b 433 778 521 665 450 708 l 433 778 b 372 822 426 804 401 824 b 315 761 340 821 314 793 b 376 703 317 728 344 703 b 754 351 578 710 747 553 b 656 90 757 254 722 161 b 403 -25 590 19 500 -22 b 25 326 201 -32 32 125 b 28 378 25 343 25 361 "},"T":{"ha":750,"x_min":0,"x_max":0,"o":"m 694 983 b 725 803 753 942 767 861 b 544 771 685 743 603 729 b 506 794 532 781 519 788 l 506 131 b 375 0 506 58 447 0 b 246 131 303 0 246 58 l 246 794 b 206 771 232 788 218 781 b 25 803 147 729 65 743 b 56 983 -17 861 -3 942 b 375 1085 150 1050 260 1085 b 694 983 490 1085 600 1050 "},"t":{"ha":742,"x_min":0,"x_max":0,"o":"m 611 1060 b 742 929 683 1060 742 1001 b 611 800 742 858 683 800 l 501 800 l 501 128 b 371 -1 501 56 443 -1 b 242 128 300 -1 242 56 l 242 800 l 131 800 b 0 929 58 800 0 858 b 131 1060 0 1001 58 1060 l 611 1060 "},"U":{"ha":883,"x_min":0,"x_max":0,"o":"m 715 1058 b 844 928 788 1058 844 1000 l 844 378 b 442 -26 844 154 664 -26 b 39 378 219 -26 39 154 l 39 928 b 168 1058 39 1000 96 1058 b 299 928 240 1058 299 1000 l 299 378 b 442 233 299 299 363 233 b 585 378 521 233 585 299 l 585 928 b 715 1058 585 1000 643 1058 "},"Ú":{"ha":883,"x_min":0,"x_max":0,"o":"m 715 1058 b 844 928 788 1058 844 1000 l 844 378 b 442 -26 844 154 664 -26 b 39 378 219 -26 39 154 l 39 928 b 168 1058 39 1000 96 1058 b 299 928 240 1058 299 1000 l 299 378 b 442 233 299 299 363 233 b 585 378 521 233 585 299 l 585 928 b 715 1058 585 1000 643 1058 m 690 1303 b 822 1282 732 1333 792 1324 b 800 1150 853 1239 843 1181 l 681 1064 b 549 1085 639 1033 579 1043 b 571 1217 518 1128 528 1186 l 571 1217 l 690 1303 "},"Û":{"ha":883,"x_min":0,"x_max":0,"o":"m 715 1058 b 844 928 788 1058 844 1000 l 844 378 b 442 -26 844 154 664 -26 b 39 378 219 -26 39 154 l 39 928 b 168 1058 39 1000 96 1058 b 299 928 240 1058 299 1000 l 299 378 b 442 233 299 299 363 233 b 585 378 521 233 585 299 l 585 928 b 715 1058 585 1000 643 1058 m 617 1208 b 638 1076 658 1178 668 1119 b 506 1056 607 1035 549 1025 l 442 1101 l 376 1056 b 244 1076 335 1025 275 1035 b 267 1208 215 1119 224 1178 l 386 1294 b 497 1294 419 1318 464 1318 l 617 1208 "},"Ü":{"ha":883,"x_min":0,"x_max":0,"o":"m 715 1058 b 844 928 788 1058 844 1000 l 844 378 b 442 -26 844 154 664 -26 b 39 378 219 -26 39 154 l 39 928 b 168 1058 39 1000 96 1058 b 299 928 240 1058 299 1000 l 299 378 b 442 233 299 299 363 233 b 585 378 521 233 585 299 l 585 928 b 715 1058 585 1000 643 1058 m 336 1236 b 439 1133 393 1236 439 1190 b 336 1032 439 1078 393 1032 b 233 1133 279 1032 233 1078 b 336 1236 233 1190 279 1236 m 547 1236 b 650 1133 604 1236 650 1190 b 547 1032 650 1078 604 1032 b 444 1133 490 1032 444 1078 b 547 1236 444 1190 490 1236 "},"Ù":{"ha":883,"x_min":0,"x_max":0,"o":"m 715 1058 b 844 928 788 1058 844 1000 l 844 378 b 442 -26 844 154 664 -26 b 39 378 219 -26 39 154 l 39 928 b 168 1058 39 1000 96 1058 b 299 928 240 1058 299 1000 l 299 378 b 442 233 299 299 363 233 b 585 378 521 233 585 299 l 585 928 b 715 1058 585 1000 643 1058 m 314 1218 b 335 1086 356 1188 365 1128 b 203 1064 304 1043 246 1033 l 83 1150 b 63 1282 42 1181 32 1240 b 194 1304 93 1325 151 1335 l 314 1218 "},"Ũ":{"ha":883,"x_min":0,"x_max":0,"o":"m 715 1058 b 844 928 788 1058 844 1000 l 844 378 b 442 -26 844 154 664 -26 b 39 378 219 -26 39 154 l 39 928 b 168 1058 39 1000 96 1058 b 299 928 240 1058 299 1000 l 299 378 b 442 233 299 299 363 233 b 585 378 521 233 585 299 l 585 928 b 715 1058 585 1000 643 1058 m 617 1261 b 681 1143 667 1246 696 1193 b 553 1033 667 1097 625 1042 b 422 1061 492 1026 449 1049 b 417 1064 422 1061 417 1064 l 411 1067 b 404 1069 408 1068 407 1069 b 301 1036 382 1039 340 1024 b 239 1154 251 1051 224 1104 b 365 1264 251 1199 293 1254 b 496 1236 426 1271 471 1249 b 501 1233 496 1236 501 1233 l 508 1229 b 514 1226 510 1229 513 1228 b 617 1261 538 1257 578 1272 "},"u":{"ha":806,"x_min":0,"x_max":0,"o":"m 39 929 b 168 1058 39 1001 97 1058 b 299 929 240 1058 299 1001 l 299 929 l 299 339 b 403 235 299 282 346 235 b 507 339 460 235 507 282 l 507 929 l 507 929 b 638 1058 507 1001 565 1058 b 767 929 708 1058 767 1001 l 767 929 l 767 339 b 403 -25 767 139 603 -25 b 39 339 201 -25 39 139 l 39 929 "},"ú":{"ha":806,"x_min":0,"x_max":0,"o":"m 39 929 b 168 1058 39 1001 97 1058 b 299 929 240 1058 299 1001 l 299 929 l 299 339 b 403 235 299 282 346 235 b 507 339 460 235 507 282 l 507 929 l 507 929 b 638 1058 507 1001 565 1058 b 767 929 708 1058 767 1001 l 767 929 l 767 339 b 403 -25 767 139 603 -25 b 39 339 201 -25 39 139 l 39 929 m 613 1303 b 744 1282 654 1333 714 1324 b 722 1150 775 1239 765 1181 l 603 1064 b 471 1085 561 1033 501 1043 b 493 1217 440 1128 450 1186 l 493 1217 l 613 1303 "},"û":{"ha":806,"x_min":0,"x_max":0,"o":"m 39 929 b 168 1058 39 1001 97 1058 b 299 929 240 1058 299 1001 l 299 929 l 299 339 b 403 235 299 282 346 235 b 507 339 460 235 507 282 l 507 929 l 507 929 b 638 1058 507 1001 565 1058 b 767 929 708 1058 767 1001 l 767 929 l 767 339 b 403 -25 767 139 603 -25 b 39 339 201 -25 39 139 l 39 929 m 578 1204 b 599 1072 619 1174 629 1115 b 467 1051 568 1031 510 1021 l 403 1097 l 338 1051 b 206 1072 296 1021 236 1031 b 228 1204 176 1115 185 1174 l 347 1290 b 458 1290 381 1314 425 1314 l 578 1204 "},"ü":{"ha":806,"x_min":0,"x_max":0,"o":"m 39 929 b 168 1058 39 1001 97 1058 b 299 929 240 1058 299 1001 l 299 929 l 299 339 b 403 235 299 282 346 235 b 507 339 460 235 507 282 l 507 929 l 507 929 b 638 1058 507 1001 565 1058 b 767 929 708 1058 767 1001 l 767 929 l 767 339 b 403 -25 767 139 603 -25 b 39 339 201 -25 39 139 l 39 929 m 297 1232 b 400 1129 354 1232 400 1186 b 297 1028 400 1074 354 1028 b 194 1129 240 1028 194 1074 b 297 1232 194 1186 240 1232 m 508 1232 b 611 1129 565 1232 611 1186 b 508 1028 611 1074 565 1028 b 406 1129 451 1028 406 1074 b 508 1232 406 1186 451 1232 "},"ù":{"ha":806,"x_min":0,"x_max":0,"o":"m 39 929 b 168 1058 39 1001 97 1058 b 299 929 240 1058 299 1001 l 299 929 l 299 339 b 403 235 299 282 346 235 b 507 339 460 235 507 282 l 507 929 l 507 929 b 638 1058 507 1001 565 1058 b 767 929 708 1058 767 1001 l 767 929 l 767 339 b 403 -25 767 139 603 -25 b 39 339 201 -25 39 139 l 39 929 m 313 1218 b 333 1086 354 1188 364 1128 b 201 1064 303 1043 244 1033 l 82 1150 b 61 1282 40 1181 31 1240 b 193 1304 92 1325 150 1335 l 313 1218 "},"ũ":{"ha":806,"x_min":0,"x_max":0,"o":"m 39 929 b 168 1058 39 1001 97 1058 b 299 929 240 1058 299 1001 l 299 929 l 299 339 b 403 235 299 282 346 235 b 507 339 460 235 507 282 l 507 929 l 507 929 b 638 1058 507 1001 565 1058 b 767 929 708 1058 767 1001 l 767 929 l 767 339 b 403 -25 767 139 603 -25 b 39 339 201 -25 39 139 l 39 929 m 581 1257 b 644 1139 631 1242 660 1189 b 517 1029 631 1093 589 1038 b 386 1057 456 1022 413 1044 b 381 1060 386 1057 381 1060 l 375 1063 b 368 1065 372 1064 371 1065 b 265 1032 346 1035 304 1019 b 203 1150 215 1047 188 1100 b 329 1260 215 1194 257 1250 b 460 1232 390 1267 435 1244 b 465 1229 460 1232 465 1229 l 472 1225 b 478 1222 474 1225 476 1224 b 581 1257 501 1253 542 1268 "},"V":{"ha":846,"x_min":0,"x_max":0,"o":"m 675 1060 b 804 929 747 1060 804 1001 l 804 131 b 713 6 804 72 768 22 b 568 57 658 -11 600 10 l 24 857 b 58 1038 -17 915 -1 997 b 239 1003 118 1078 199 1063 l 544 553 l 544 929 b 675 1060 544 1001 603 1060 "},"v":{"ha":778,"x_min":0,"x_max":0,"o":"m 688 1053 b 771 889 756 1031 793 957 l 513 89 b 389 0 496 36 446 0 b 265 89 333 0 283 36 l 7 889 b 92 1053 -14 957 22 1031 b 254 969 160 1075 233 1038 l 389 551 l 524 969 b 688 1053 546 1038 619 1075 "},"W":{"ha":1274,"x_min":0,"x_max":0,"o":"m 403 -1 b 39 363 201 -1 39 163 l 39 953 b 168 1083 39 1025 97 1083 b 299 953 240 1083 299 1025 l 299 363 b 403 258 299 306 346 258 b 507 363 460 258 507 306 l 507 953 b 638 1083 507 1025 565 1083 b 767 953 708 1083 767 1025 l 767 363 b 871 258 767 306 814 258 b 975 363 929 258 975 306 l 975 953 b 1106 1083 975 1025 1033 1083 b 1235 953 1176 1083 1235 1025 l 1235 363 b 871 -1 1235 163 1072 -1 b 638 85 782 -1 700 31 b 403 -1 574 31 492 -1 "},"w":{"ha":997,"x_min":0,"x_max":0,"o":"m 885 1058 b 996 911 957 1049 1006 982 l 886 111 b 774 0 878 53 832 8 b 638 81 715 -7 658 26 l 499 422 l 361 81 b 225 0 339 26 283 -7 b 113 111 167 8 119 53 l 1 911 b 113 1058 -8 982 42 1049 b 260 947 183 1068 249 1018 l 303 631 l 378 818 b 499 900 399 867 446 900 b 619 818 551 900 600 867 l 696 631 l 739 947 b 885 1058 749 1018 814 1068 "},"X":{"ha":811,"x_min":0,"x_max":0,"o":"m 640 1060 b 769 931 711 1060 769 1001 l 769 783 b 685 550 769 694 738 613 b 769 315 738 486 769 404 l 769 131 b 640 0 769 58 711 0 b 510 131 568 0 510 58 l 510 315 b 406 419 510 372 463 419 b 301 315 349 419 301 372 l 301 131 b 171 0 301 58 243 0 b 42 131 100 0 42 58 l 42 315 b 126 550 42 404 74 486 b 42 783 74 613 42 694 l 42 931 b 171 1060 42 1001 100 1060 b 301 931 243 1060 301 1001 l 301 783 b 406 679 301 726 349 679 b 510 783 463 679 510 726 l 510 931 b 640 1060 510 1001 568 1060 "},"x":{"ha":764,"x_min":0,"x_max":0,"o":"m 678 1042 b 725 864 739 1006 761 926 l 532 529 l 724 194 l 724 194 b 676 17 760 132 739 53 b 499 65 614 -18 535 3 l 382 268 l 265 65 b 88 17 229 3 150 -18 b 40 194 25 53 4 132 l 40 194 l 232 529 l 39 864 b 86 1042 3 926 25 1006 b 264 994 149 1078 228 1057 l 382 789 l 500 994 b 678 1042 536 1057 615 1078 "},"Y":{"ha":779,"x_min":0,"x_max":0,"o":"m 713 1042 b 761 864 775 1006 796 926 l 519 442 l 519 129 b 390 0 519 57 461 0 b 260 129 318 0 260 57 l 260 442 l 18 864 b 67 1042 -17 926 4 1006 b 244 993 129 1078 208 1056 l 390 738 l 535 993 b 713 1042 571 1056 650 1078 "},"y":{"ha":769,"x_min":0,"x_max":0,"o":"m 618 1060 b 749 929 690 1060 749 1001 l 749 783 b 517 443 749 628 651 496 l 517 129 b 386 0 517 58 458 0 b 257 129 315 0 257 58 l 257 442 b 21 783 118 494 21 626 l 21 929 b 150 1060 21 1001 79 1060 b 281 929 222 1060 281 1001 l 281 783 b 385 679 281 725 326 679 b 489 783 442 679 489 725 l 489 929 b 618 1060 489 1001 547 1060 "},"Z":{"ha":743,"x_min":0,"x_max":0,"o":"m 600 260 b 729 129 671 260 729 201 b 600 0 729 57 671 0 l 144 0 b 33 63 99 0 57 24 b 31 192 10 103 8 151 l 361 799 l 178 799 b 47 929 106 799 47 857 b 178 1058 47 1001 106 1058 l 579 1058 b 690 996 625 1058 668 1035 b 693 867 714 956 715 907 l 363 260 l 600 260 "},"z":{"ha":725,"x_min":0,"x_max":0,"o":"m 578 260 b 708 129 650 260 708 201 b 578 0 708 57 650 0 l 169 0 b 60 60 125 0 83 22 b 53 186 36 99 33 146 l 350 799 l 203 799 b 74 929 131 799 74 857 b 203 1058 74 1001 131 1058 l 557 1058 b 668 999 601 1058 643 1036 b 674 872 692 960 693 913 l 378 260 l 578 260 "},"€":{"ha":1161,"x_min":0,"x_max":0,"o":"m 1090 392 b 1122 210 1150 350 1164 269 b 669 -25 1018 64 849 -25 b 174 281 453 -25 265 100 l 118 281 b 0 399 53 281 0 333 b 115 517 0 463 51 515 b 115 547 115 526 115 539 b 0 665 51 549 0 600 b 118 783 0 731 53 783 l 176 783 b 669 1085 268 961 454 1085 b 1122 850 849 1085 1018 996 b 1090 668 1164 790 1150 710 b 910 700 1032 626 951 640 b 669 824 854 778 765 824 b 519 783 614 824 563 810 l 742 783 b 860 665 807 783 860 731 b 742 547 860 600 807 547 l 375 547 b 375 517 375 539 375 526 l 651 517 b 769 399 717 517 769 464 b 651 281 769 333 717 281 l 513 281 b 669 235 558 251 611 235 b 910 360 765 235 854 282 b 1090 392 951 419 1032 433 "},"£":{"ha":818,"x_min":0,"x_max":0,"o":"m 688 260 b 818 129 760 260 818 201 b 688 0 818 58 760 0 l 129 0 b 0 129 58 0 0 58 b 129 260 0 201 58 260 b 158 288 146 260 158 272 l 158 421 l 129 421 b 0 550 58 421 0 479 b 129 681 0 622 58 681 l 158 681 l 158 772 b 471 1085 158 944 299 1085 b 782 772 642 1085 782 944 b 653 643 782 701 724 643 b 522 772 581 643 522 701 b 471 825 522 801 499 825 b 418 772 442 825 418 801 l 418 681 l 447 681 b 576 550 518 681 576 622 b 447 421 576 479 518 421 l 418 421 l 418 288 b 417 260 418 279 418 269 l 688 260 "},"¥":{"ha":779,"x_min":0,"x_max":0,"o":"m 713 1042 b 761 865 775 1007 796 926 l 649 669 b 740 554 701 657 740 610 b 622 436 740 489 688 436 l 519 436 l 519 406 l 578 406 b 696 288 642 406 696 353 b 578 169 696 222 642 169 l 519 169 l 519 129 b 389 0 519 57 461 0 b 260 129 318 0 260 57 l 260 169 l 201 169 b 83 288 136 169 83 222 b 201 406 83 353 136 406 l 260 406 l 260 436 l 154 436 b 36 554 89 436 36 489 b 129 669 36 611 76 658 l 18 865 b 67 1042 -17 926 4 1007 b 244 993 129 1078 208 1056 l 389 738 l 535 993 b 713 1042 571 1056 650 1078 "},"\"":{"ha":658,"x_min":0,"x_max":0,"o":"m 172 1060 b 301 929 243 1060 301 1001 l 301 607 b 172 478 301 535 243 478 b 42 607 100 478 42 535 l 42 929 b 172 1060 42 1001 100 1060 m 486 1060 b 617 929 558 1060 617 1001 l 617 607 b 486 478 617 535 558 478 b 357 607 415 478 357 535 l 357 929 b 486 1060 357 1001 415 1060 "},"'":{"ha":343,"x_min":0,"x_max":0,"o":"m 171 478 b 42 608 100 478 42 536 l 42 931 b 171 1060 42 1003 100 1060 b 301 931 243 1060 301 1003 l 301 608 b 171 478 301 536 243 478 "},"‘":{"ha":315,"x_min":0,"x_max":0,"o":"m 47 863 b 28 932 35 883 28 907 b 158 1061 28 1003 86 1061 b 288 932 229 1061 288 1003 b 246 836 288 893 272 860 l 254 822 b 225 714 275 785 263 736 b 118 743 188 693 139 706 l 118 743 "},"’":{"ha":315,"x_min":0,"x_max":0,"o":"m 197 743 l 197 743 b 90 714 176 706 128 693 b 61 822 53 736 40 785 l 69 836 b 28 932 43 860 28 893 b 157 1061 28 1003 86 1061 b 288 932 229 1061 288 1003 b 268 863 288 907 281 883 "},"“":{"ha":581,"x_min":0,"x_max":0,"o":"m 118 1011 l 118 1011 b 225 1040 139 1049 188 1061 b 254 932 263 1018 275 969 l 246 918 b 288 822 272 894 288 861 b 158 693 288 751 229 693 b 28 822 86 693 28 751 b 47 892 28 847 35 871 m 383 1011 l 383 1011 b 490 1040 404 1049 453 1061 b 519 932 528 1018 540 969 l 511 918 b 553 822 538 894 553 861 b 424 693 553 751 494 693 b 293 822 351 693 293 751 b 313 892 293 847 300 871 "},"”":{"ha":581,"x_min":0,"x_max":0,"o":"m 463 743 l 463 743 b 356 714 442 706 393 693 b 326 822 318 736 306 785 l 335 836 b 293 932 308 860 293 893 b 422 1061 293 1003 351 1061 b 553 932 494 1061 553 1003 b 533 863 553 907 546 883 m 197 743 l 197 743 b 90 714 176 706 128 693 b 61 822 53 736 40 785 l 69 836 b 28 932 43 860 28 893 b 157 1061 28 1003 86 1061 b 288 932 229 1061 288 1003 b 268 863 288 907 281 883 "},"–":{"ha":806,"x_min":0,"x_max":0,"o":"m 129 443 b 0 574 58 443 0 501 b 129 703 0 644 58 703 l 129 703 l 676 703 l 676 703 b 806 574 747 703 806 644 b 676 443 806 501 747 443 l 676 443 l 129 443 "},"—":{"ha":1040,"x_min":0,"x_max":0,"o":"m 129 443 b 0 574 58 443 0 501 b 129 703 0 644 58 703 l 129 703 l 911 703 l 911 703 b 1040 574 982 703 1040 644 b 911 443 1040 501 982 443 l 911 443 l 129 443 "},"/":{"ha":525,"x_min":0,"x_max":0,"o":"m 435 1061 b 518 897 504 1039 540 965 l 254 89 b 90 7 232 21 158 -15 b 7 171 22 29 -15 103 l 271 978 b 435 1061 293 1046 367 1083 "},"\\":{"ha":525,"x_min":0,"x_max":0,"o":"m 90 1061 b 254 978 158 1083 232 1046 l 518 171 b 435 7 540 103 503 29 b 271 89 367 -15 293 21 l 7 897 b 90 1061 -15 965 21 1039 "},"|":{"ha":343,"x_min":0,"x_max":0,"o":"m 42 960 b 171 1089 42 1031 99 1089 b 301 960 243 1089 301 1031 l 301 960 l 301 -174 l 301 -174 b 171 -304 301 -246 243 -304 b 42 -174 99 -304 42 -246 l 42 -174 l 42 960 "},"·":{"ha":288,"x_min":0,"x_max":0,"o":"m 274 529 b 144 400 274 457 217 400 b 14 529 72 400 14 457 b 144 660 14 601 72 660 b 274 529 217 660 274 601 "},",":{"ha":315,"x_min":0,"x_max":0,"o":"m 197 -58 l 197 -58 b 90 -87 176 -96 128 -108 b 61 21 53 -65 40 -17 l 69 35 b 28 131 43 58 28 92 b 157 260 28 201 86 260 b 288 131 229 260 288 201 b 268 61 288 106 281 82 "},".":{"ha":329,"x_min":0,"x_max":0,"o":"m 288 129 b 158 0 288 57 231 0 b 28 129 86 0 28 57 b 158 260 28 201 86 260 b 288 129 231 260 288 201 "},":":{"ha":329,"x_min":0,"x_max":0,"o":"m 158 260 b 250 222 192 260 226 246 b 288 131 274 199 288 164 b 250 39 288 96 274 63 b 158 0 226 14 192 0 b 67 39 124 0 90 14 b 28 131 42 63 28 96 b 67 222 28 164 42 199 b 158 260 90 246 124 260 m 158 622 b 250 585 192 622 226 608 b 288 493 274 560 288 526 b 250 400 288 458 274 425 b 158 363 226 376 192 363 b 67 400 124 363 90 376 b 28 493 42 425 28 458 b 67 585 28 526 42 560 b 158 622 90 608 124 622 "},";":{"ha":329,"x_min":0,"x_max":0,"o":"m 274 74 b 274 72 274 74 274 74 b 271 68 272 71 272 69 b 271 67 271 68 271 67 l 197 -58 b 129 -97 183 -83 157 -97 b 90 -86 117 -97 103 -94 b 61 21 53 -65 40 -17 l 69 35 b 65 39 68 36 67 38 b 28 131 42 63 28 96 b 65 222 28 164 42 199 b 157 260 90 246 124 260 b 249 222 192 260 225 246 b 288 131 274 199 288 164 b 274 74 288 111 282 92 m 157 363 b 65 400 124 363 90 376 b 28 493 42 425 28 458 b 65 585 28 526 42 560 b 157 622 90 608 124 622 b 249 585 192 622 225 608 b 288 493 274 560 288 526 b 249 400 288 458 274 425 b 157 363 225 376 192 363 "},"<":{"ha":660,"x_min":0,"x_max":0,"o":"m 622 1021 b 622 838 672 971 672 889 l 314 529 l 622 222 b 622 38 672 171 672 89 b 438 38 571 -12 489 -12 l 38 438 b 0 529 14 463 0 496 b 38 622 0 564 14 597 l 438 1022 b 622 1021 489 1072 571 1072 "},">":{"ha":660,"x_min":0,"x_max":0,"o":"m 621 622 b 660 529 646 597 660 564 b 621 438 660 496 646 463 l 221 38 b 38 38 171 -12 89 -12 b 38 222 -12 89 -12 171 l 346 529 l 38 838 b 38 1021 -12 889 -12 971 b 221 1022 89 1072 171 1072 "},"•":{"ha":792,"x_min":0,"x_max":0,"o":"m 292 821 b 583 529 453 821 583 689 b 292 238 583 368 453 238 b 0 529 132 238 0 368 b 292 821 0 689 132 821 "},"§":{"ha":682,"x_min":0,"x_max":0,"o":"m 661 379 b 563 147 661 288 622 206 b 594 10 582 106 594 58 b 281 -304 594 -164 453 -304 l 233 -304 b 104 -175 161 -304 104 -246 b 233 -44 104 -103 161 -44 l 281 -44 b 333 10 310 -44 333 -21 b 289 63 333 36 315 58 b 288 63 289 63 288 63 b 21 379 136 89 21 221 b 119 610 21 469 58 551 b 88 747 99 651 88 699 b 401 1061 88 921 229 1061 l 464 1061 b 594 932 536 1061 594 1004 b 464 801 594 860 536 801 l 401 801 b 347 747 372 801 347 778 b 393 694 347 721 367 699 b 396 694 393 694 394 694 b 661 379 546 668 661 536 m 401 379 b 340 439 401 413 374 439 b 281 379 308 439 281 413 b 340 318 281 346 308 318 b 401 379 374 318 401 346 "},"º":{"ha":583,"x_min":0,"x_max":0,"o":"m 292 1060 b 583 768 453 1060 583 928 b 292 476 583 607 453 476 b 0 768 132 476 0 607 b 292 1060 0 928 132 1060 m 292 736 b 324 768 310 736 324 750 b 292 799 324 785 310 799 b 261 768 275 799 261 785 b 292 736 261 750 275 736 "},"ª":{"ha":617,"x_min":0,"x_max":0,"o":"m 486 1058 b 617 928 558 1058 617 1000 l 617 607 b 486 476 617 535 558 476 b 410 501 458 476 431 486 b 292 476 374 486 333 476 b 0 768 131 476 0 607 b 292 1060 0 928 131 1060 b 411 1033 333 1060 375 1050 b 486 1058 432 1049 458 1058 m 292 736 b 322 768 308 736 322 750 b 292 799 322 785 308 799 b 260 768 274 799 260 785 b 292 736 260 750 274 736 "},"©":{"ha":1153,"x_min":0,"x_max":0,"o":"m 576 1085 b 1132 529 883 1085 1132 836 b 576 -26 1132 222 883 -26 b 21 529 271 -26 21 222 b 576 1085 21 836 271 1085 m 576 193 b 913 529 761 193 913 344 b 576 864 913 714 761 864 b 242 529 392 864 242 714 b 576 193 242 344 392 193 m 576 840 b 833 704 679 840 775 789 b 804 551 868 654 854 586 b 651 579 754 517 686 529 b 576 619 635 604 607 619 b 486 529 526 619 486 579 b 576 439 486 479 526 439 b 651 478 607 439 635 453 b 804 507 686 528 754 542 b 833 353 854 472 868 404 b 576 218 775 269 679 218 b 265 529 406 218 265 357 b 576 840 265 700 406 840 "},"®":{"ha":1154,"x_min":0,"x_max":0,"o":"m 578 1085 b 1133 529 883 1085 1133 836 b 578 -26 1133 222 883 -26 b 21 529 271 -26 21 222 b 578 1085 21 836 271 1085 m 563 194 b 578 193 567 194 572 193 b 688 213 615 193 653 200 l 582 397 b 576 494 565 426 563 463 b 649 558 589 526 617 550 b 657 568 653 560 657 563 b 646 579 657 575 653 579 l 563 579 l 563 194 m 863 351 b 913 529 894 403 913 464 b 578 864 913 714 763 864 b 242 529 392 864 242 714 b 342 290 242 436 281 351 l 342 689 b 453 800 342 750 392 800 l 646 800 b 878 568 774 800 878 696 b 824 419 878 513 857 461 l 863 351 "},"™":{"ha":1756,"x_min":0,"x_max":0,"o":"m 679 1060 b 808 929 750 1060 808 1001 b 679 799 808 857 750 799 l 535 799 l 535 514 b 404 383 535 442 476 383 b 275 514 333 383 275 442 l 275 799 l 131 799 b 0 929 58 799 0 857 b 131 1060 0 1001 58 1060 l 679 1060 m 1681 1047 b 1756 929 1726 1025 1756 979 l 1756 514 b 1625 383 1756 442 1697 383 b 1496 514 1554 383 1496 442 l 1496 650 l 1368 543 b 1201 543 1319 503 1250 503 l 1074 650 l 1074 514 b 944 383 1074 442 1015 383 b 814 514 872 383 814 442 l 814 929 b 889 1047 814 979 843 1025 b 1028 1029 935 1068 989 1061 l 1285 813 l 1542 1029 b 1681 1047 1581 1061 1635 1068 "},"°":{"ha":583,"x_min":0,"x_max":0,"o":"m 292 1060 b 583 768 453 1060 583 928 b 292 476 583 607 453 476 b 0 768 132 476 0 607 b 292 1060 0 928 132 1060 m 292 736 b 324 768 310 736 324 750 b 292 799 324 785 310 799 b 261 768 275 799 261 785 b 292 736 261 750 275 736 "},"^":{"ha":485,"x_min":0,"x_max":0,"o":"m 418 613 b 439 481 460 582 469 524 b 307 460 408 439 350 429 l 243 506 l 178 460 b 46 481 136 429 76 439 b 68 613 17 524 25 582 l 188 699 b 299 699 221 722 265 722 l 418 613 "},"~":{"ha":507,"x_min":0,"x_max":0,"o":"m 411 671 b 475 553 461 656 490 603 b 347 443 461 507 419 451 b 217 471 286 436 243 458 b 211 474 217 471 211 474 l 206 476 b 199 479 203 478 201 479 b 96 446 176 449 135 433 b 33 564 46 461 18 514 b 160 674 46 608 88 664 b 290 646 221 681 265 658 b 296 643 290 646 296 643 l 303 639 b 308 636 304 639 307 638 b 411 671 332 667 372 682 "},"´":{"ha":365,"x_min":0,"x_max":0,"o":"m 188 1322 b 319 1301 229 1353 289 1343 b 297 1169 350 1258 340 1200 l 178 1083 b 46 1104 136 1053 76 1063 b 68 1236 15 1147 25 1206 l 68 1236 l 188 1322 "},"ˆ":{"ha":485,"x_min":0,"x_max":0,"o":"m 418 1238 b 439 1106 460 1207 469 1149 b 307 1085 408 1064 350 1054 l 243 1131 l 178 1085 b 46 1106 136 1054 76 1064 b 68 1238 17 1149 25 1207 l 188 1324 b 299 1324 221 1347 265 1347 l 418 1238 "},"`":{"ha":364,"x_min":0,"x_max":0,"o":"m 297 1238 b 318 1106 339 1207 349 1147 b 186 1083 288 1063 229 1053 l 67 1169 b 46 1301 25 1200 15 1260 b 178 1324 76 1344 135 1354 l 297 1238 "},"˜":{"ha":507,"x_min":0,"x_max":0,"o":"m 411 1293 b 475 1175 461 1278 490 1225 b 347 1065 461 1129 419 1074 b 217 1093 286 1058 243 1081 b 211 1096 217 1093 211 1096 l 206 1099 b 199 1101 203 1100 201 1101 b 96 1068 176 1071 135 1056 b 33 1186 46 1083 18 1136 b 160 1296 46 1231 88 1286 b 290 1268 221 1303 265 1281 b 296 1265 290 1268 296 1265 l 303 1261 b 308 1258 304 1261 307 1260 b 411 1293 332 1289 372 1304 "},"¨":{"ha":472,"x_min":0,"x_max":0,"o":"m 131 1269 b 233 1167 188 1269 233 1224 b 131 1065 233 1111 188 1065 b 28 1167 74 1065 28 1111 b 131 1269 28 1224 74 1269 m 342 1269 b 444 1167 399 1269 444 1224 b 342 1065 444 1111 399 1065 b 239 1167 285 1065 239 1111 b 342 1269 239 1224 285 1269 "},"¶":{"ha":1024,"x_min":0,"x_max":0,"o":"m 578 1058 b 708 929 650 1058 708 1000 l 708 -175 b 578 -304 708 -247 650 -304 b 449 -175 506 -304 449 -247 l 449 346 l 376 346 b 21 703 181 346 21 506 b 378 1058 21 899 181 1058 l 578 1058 m 851 1058 b 982 929 924 1058 982 1000 l 982 -175 b 851 -304 982 -247 924 -304 b 722 -175 779 -304 722 -247 l 722 929 b 851 1058 722 1000 779 1058 "},"↕":{"ha":1035,"x_min":0,"x_max":0,"o":"m 635 493 b 793 493 678 538 750 538 b 793 335 838 449 838 378 l 493 33 b 413 0 471 13 443 0 b 333 33 383 0 354 13 l 33 335 b 33 493 -11 378 -11 449 b 192 493 76 538 147 538 l 294 390 l 294 669 l 192 567 b 33 567 147 522 76 522 b 33 725 -11 611 -11 682 l 333 1026 b 493 1026 378 1071 449 1071 l 793 725 b 793 567 838 682 838 611 b 635 567 749 522 678 522 l 532 669 l 532 390 l 635 493 "},"☂":{"ha":935,"x_min":0,"x_max":0,"o":"m 822 824 b 921 603 886 760 921 683 b 906 588 921 594 915 588 b 890 603 897 588 890 594 b 818 676 890 643 858 676 b 744 603 778 676 744 643 b 731 588 744 594 738 588 b 715 603 722 588 715 594 b 643 676 715 643 683 676 b 569 603 601 676 569 643 b 556 588 569 594 563 588 b 540 603 547 588 540 594 b 482 675 540 639 515 668 l 482 97 b 544 35 482 63 511 35 b 607 97 579 35 607 63 b 596 133 607 111 603 124 b 599 154 590 140 592 150 b 619 151 606 158 614 157 b 638 97 631 135 638 117 b 544 6 638 46 596 6 b 453 97 494 6 453 46 l 453 675 b 394 603 419 668 394 639 b 381 588 394 594 389 588 b 365 603 372 588 365 594 b 292 676 365 643 332 676 b 219 603 253 676 219 643 b 204 588 219 594 214 588 b 189 603 196 588 189 594 b 117 676 189 643 157 676 b 44 603 78 676 44 643 b 29 588 44 594 38 588 b 14 603 21 588 14 594 b 113 825 14 685 49 761 b 453 968 197 910 326 964 l 453 1038 b 467 1054 453 1046 458 1054 b 482 1038 475 1054 482 1046 l 482 968 b 822 824 607 964 736 908 "},"☺":{"ha":1092,"x_min":0,"x_max":0,"o":"m 988 572 b 1089 418 1058 557 1103 489 b 546 -25 1036 161 808 -25 b 3 415 285 -25 57 161 b 104 569 -11 486 33 556 b 258 469 174 585 243 539 b 546 235 286 333 407 235 b 835 471 685 235 807 335 b 988 572 849 540 918 586 m 354 678 b 225 808 283 678 225 736 l 225 929 b 354 1060 225 1001 283 1060 b 485 929 426 1060 485 1001 l 485 808 b 354 678 485 736 426 678 m 738 678 b 607 808 665 678 607 736 l 607 929 b 738 1060 607 1001 665 1060 b 868 929 810 1060 868 1001 l 868 808 b 738 678 868 736 810 678 "},"♥":{"ha":1250,"x_min":0,"x_max":0,"o":"m 625 -1 b 533 36 592 -1 558 11 l 108 460 b 0 718 39 529 0 621 b 365 1083 0 919 164 1083 b 625 974 467 1083 560 1040 b 886 1083 692 1040 783 1083 b 1250 718 1086 1083 1250 919 b 1143 460 1250 621 1213 529 l 717 36 b 625 -1 692 11 658 -1 "},"":{"ha":0,"x_min":0,"x_max":0,"o":"m 818 744 b 826 738 824 749 829 743 l 806 704 b 799 519 883 622 815 506 l 714 596 l 708 589 b 794 319 775 521 811 422 b 628 90 778 217 714 135 l 646 22 b 636 18 649 15 640 13 l 599 76 b 438 60 549 58 493 51 b 290 126 382 69 331 92 l 236 82 b 228 89 229 76 224 83 l 265 147 b 178 417 197 215 161 315 b 343 646 194 519 258 601 l 340 656 l 236 608 b 288 786 217 600 188 733 l 278 824 b 288 828 275 831 283 835 l 308 796 b 475 715 415 833 494 724 l 371 669 l 375 660 b 525 678 422 678 474 685 l 529 703 l 528 703 b 510 726 515 704 508 715 b 533 744 511 739 522 746 l 557 740 b 575 717 568 739 576 728 b 550 699 572 706 563 697 l 549 700 l 544 675 b 682 611 597 665 643 643 l 689 619 l 604 694 b 788 721 588 710 699 789 m 176 606 b 103 724 150 624 103 667 b 153 782 103 742 115 782 b 185 753 172 782 185 767 b 156 722 185 735 172 722 b 132 732 143 722 138 726 b 122 700 131 728 122 718 b 182 611 122 663 156 632 m 882 782 b 956 664 908 764 956 721 b 907 606 956 646 943 606 b 875 635 888 606 875 621 b 903 665 875 653 888 665 b 926 656 915 665 921 661 b 938 688 929 660 938 669 b 878 776 938 725 903 756 m 1000 769 b 1060 674 1021 754 1060 719 b 1019 625 1060 658 1049 625 b 993 650 1004 625 993 638 b 1017 674 993 664 1004 674 b 1036 665 1026 674 1031 671 b 1044 693 1038 669 1044 678 b 996 764 1044 722 1017 747 m 60 618 b 0 714 39 633 0 668 b 40 763 0 729 10 763 b 65 738 56 763 65 750 b 43 714 65 724 56 714 b 24 722 32 714 28 717 b 15 696 22 718 15 710 b 64 624 15 665 43 640 m 750 326 b 528 632 774 472 674 610 b 222 410 382 656 246 556 b 444 104 199 264 299 128 b 750 326 590 81 728 181 m 515 610 b 532 607 518 621 535 618 l 526 571 b 510 574 525 560 508 563 m 421 564 b 404 557 424 553 408 547 l 392 592 b 407 597 388 603 403 608 m 646 572 l 607 485 l 606 503 l 504 372 b 504 365 504 371 504 368 b 489 350 503 357 497 351 l 428 158 b 413 164 425 149 408 154 l 474 356 b 468 371 469 360 467 365 b 471 378 468 374 469 376 l 442 478 l 436 464 l 432 561 l 479 476 l 467 485 l 492 394 l 588 517 l 569 513 m 332 504 b 321 492 340 497 329 485 l 293 514 b 303 528 283 521 294 535 m 710 463 b 715 447 719 467 726 451 l 682 435 b 675 450 671 431 665 446 m 285 408 b 282 392 296 407 293 390 l 246 399 b 249 414 235 400 238 417 m 493 367 b 488 375 494 371 492 375 b 479 369 483 376 481 374 b 485 361 479 365 482 363 b 493 367 489 361 493 364 m 728 339 b 725 322 738 338 736 321 l 689 328 b 692 344 678 329 681 346 m 290 303 b 297 286 301 307 307 290 l 263 274 b 257 289 253 269 246 285 m 681 222 b 669 210 689 215 678 203 l 642 232 b 651 246 632 239 643 253 m 350 214 b 363 203 357 222 371 211 l 340 175 b 328 185 333 165 321 176 m 581 144 b 565 139 585 135 569 129 l 553 174 b 568 179 549 183 564 189 m 446 167 b 463 164 447 178 464 175 l 457 128 b 440 131 456 117 439 119 "},"☔":{"ha":1638,"x_min":0,"x_max":0,"o":"m 154 1250 b 139 1265 146 1250 139 1257 b 154 1281 139 1274 146 1281 b 169 1265 163 1281 169 1274 b 154 1250 169 1257 163 1250 m 1347 488 b 1493 158 1443 392 1493 278 b 1472 136 1493 146 1483 136 b 1450 158 1460 136 1450 146 b 1340 267 1450 218 1400 267 b 1232 158 1281 267 1232 218 b 1211 136 1232 146 1222 136 b 1189 158 1199 136 1189 146 b 1081 267 1189 218 1140 267 b 972 158 1021 267 972 218 b 950 136 972 146 963 136 b 928 158 938 136 928 146 b 843 264 928 211 892 254 l 843 -593 b 935 -685 843 -643 885 -685 b 1028 -593 986 -685 1028 -643 b 1011 -539 1028 -574 1022 -554 b 1015 -508 1003 -529 1006 -515 b 1046 -512 1025 -500 1039 -503 b 1072 -593 1063 -536 1072 -564 b 935 -729 1072 -668 1011 -729 b 799 -593 860 -729 799 -668 l 799 264 b 713 158 749 254 713 211 b 690 136 713 146 703 136 b 668 158 678 136 668 146 b 560 267 668 218 619 267 b 451 158 500 267 451 218 b 431 136 451 146 442 136 b 408 158 418 136 408 146 b 300 267 408 218 360 267 b 192 158 240 267 192 218 b 169 136 192 146 182 136 b 147 158 157 136 147 146 b 293 489 147 279 199 393 b 799 700 419 615 611 694 l 799 806 b 821 828 799 818 808 828 b 843 806 833 828 843 818 l 843 700 b 1347 488 1029 694 1221 614 m 624 536 b 610 550 624 544 617 550 l 578 550 b 563 536 569 550 563 544 b 578 522 563 528 569 522 l 594 522 l 594 507 b 572 483 594 494 585 483 b 550 507 560 483 550 494 l 550 567 b 572 589 550 579 560 589 b 594 574 582 589 590 582 b 613 564 596 567 604 563 b 621 582 619 567 624 575 b 572 617 614 603 594 617 b 521 567 544 617 521 594 l 521 507 b 572 456 521 478 544 456 b 624 507 600 456 624 478 m 699 617 b 647 567 669 617 647 594 l 647 474 b 661 460 647 465 654 460 b 675 474 669 460 675 465 l 675 514 l 721 514 l 721 474 b 735 460 721 465 726 460 b 749 474 743 460 749 465 l 749 567 b 699 617 749 594 726 617 m 675 542 l 675 567 b 699 589 675 579 686 589 b 721 567 711 589 721 579 l 721 542 m 1031 460 b 1044 474 1039 460 1044 465 l 1044 514 l 1090 514 l 1090 474 b 1104 460 1090 465 1096 460 b 1118 474 1113 460 1118 465 l 1118 567 b 1068 617 1118 594 1096 617 b 1017 567 1039 617 1017 594 l 1017 474 b 1031 460 1017 465 1024 460 m 1068 589 b 1090 567 1081 589 1090 579 l 1090 542 l 1044 542 l 1044 567 b 1068 589 1044 579 1056 589 m 942 617 b 890 567 914 617 890 594 l 890 507 b 942 456 890 478 914 456 b 993 507 969 456 993 478 l 993 567 b 942 617 993 594 969 617 m 964 507 b 942 483 964 494 954 483 b 919 507 929 483 919 494 l 919 567 b 942 589 919 579 929 589 b 964 567 954 589 964 579 m 857 531 b 868 564 864 539 868 551 b 818 613 868 590 846 613 l 788 613 b 774 599 779 613 774 607 l 774 474 b 788 460 774 465 779 460 b 801 474 794 460 801 465 l 801 585 l 818 585 b 840 564 831 585 840 575 b 824 543 840 553 833 544 b 811 528 817 542 811 538 b 825 514 811 518 818 514 b 844 494 836 514 844 504 l 844 474 b 858 460 844 465 850 460 b 872 474 867 460 872 465 l 872 494 b 857 531 872 508 867 522 m 361 429 b 350 418 356 429 350 424 l 350 383 l 318 383 l 318 418 b 307 429 318 424 314 429 b 297 418 301 429 297 424 l 297 319 b 307 308 297 314 301 308 b 318 319 314 308 318 314 l 318 363 l 350 363 l 350 319 b 361 308 350 314 356 308 b 372 319 367 308 372 314 l 372 418 b 361 429 372 424 367 429 m 1031 331 l 1031 418 b 1021 429 1031 424 1026 429 b 1010 418 1014 429 1010 424 l 1010 319 b 1021 308 1010 314 1014 308 l 1068 308 b 1078 319 1074 308 1078 314 b 1068 331 1078 325 1074 331 m 979 378 b 992 386 985 376 990 381 b 992 392 992 389 992 390 b 953 432 992 414 974 432 b 913 392 931 432 913 414 l 913 346 b 953 306 913 324 931 306 b 992 346 974 306 992 324 b 992 351 992 347 992 350 b 979 361 990 357 985 361 b 971 349 974 360 969 354 b 971 346 971 347 971 346 b 953 326 971 335 963 326 b 933 346 942 326 933 335 l 933 392 b 953 411 933 403 942 411 b 971 392 963 411 971 403 b 971 389 971 392 971 390 b 979 378 969 383 974 378 m 1154 429 b 1144 418 1149 429 1144 424 l 1144 346 b 1126 326 1144 335 1136 326 b 1107 346 1115 326 1107 335 l 1107 418 b 1097 429 1107 424 1103 429 b 1086 418 1090 429 1086 424 l 1086 346 b 1126 306 1086 324 1104 306 b 1165 346 1147 306 1165 324 l 1165 418 b 1154 429 1165 424 1161 429 m 431 432 b 390 392 408 432 390 414 l 390 319 b 401 308 390 314 394 308 b 411 319 407 308 411 314 l 411 351 l 449 351 l 449 319 b 458 308 449 314 453 308 b 469 319 465 308 469 314 l 469 392 b 431 432 469 414 451 432 m 411 374 l 411 392 b 431 411 411 403 419 411 b 449 392 440 411 449 403 l 449 374 m 706 331 b 694 342 699 331 694 335 l 694 364 l 722 364 b 733 374 728 364 733 368 b 722 385 733 381 728 385 l 694 385 l 694 396 b 706 408 694 403 699 408 l 728 408 b 739 418 733 408 739 413 b 728 429 739 424 733 429 l 706 429 b 672 396 688 429 672 414 l 672 342 b 706 308 672 324 688 308 l 731 308 b 742 319 736 308 742 314 b 731 331 742 325 736 331 m 1307 331 b 1296 342 1301 331 1296 335 l 1296 364 l 1324 364 b 1335 374 1331 364 1335 368 b 1324 385 1335 381 1331 385 l 1296 385 l 1296 396 b 1307 408 1296 403 1301 408 l 1329 408 b 1340 418 1336 408 1340 413 b 1329 429 1340 424 1336 429 l 1307 429 b 1275 396 1289 429 1275 414 l 1275 342 b 1307 308 1275 324 1289 308 l 1332 308 b 1343 319 1339 308 1343 314 b 1332 331 1343 325 1339 331 m 654 413 b 651 426 657 417 656 424 b 636 425 647 431 640 429 l 607 383 l 607 418 b 597 429 607 424 603 429 b 586 418 590 429 586 424 l 586 319 b 597 308 586 314 590 308 b 607 319 603 308 607 314 l 607 361 l 618 361 b 638 342 629 361 638 353 l 638 319 b 647 308 638 314 642 308 b 658 319 653 308 658 314 l 658 342 b 631 381 658 360 647 375 m 1243 378 b 1247 393 1246 382 1247 388 b 1211 429 1247 413 1232 429 l 1196 429 b 1185 418 1190 429 1185 424 l 1185 319 b 1196 308 1185 314 1190 308 l 1222 308 b 1260 346 1243 308 1260 325 b 1243 378 1260 360 1253 371 m 1206 331 l 1206 408 l 1211 408 b 1226 393 1219 408 1226 401 b 1219 382 1226 389 1224 385 b 1215 371 1217 379 1214 375 b 1225 363 1217 367 1219 363 b 1239 346 1232 361 1239 354 b 1222 331 1239 338 1232 331 m 822 308 b 832 319 828 308 832 314 l 832 336 b 819 364 832 347 828 357 b 829 390 825 371 829 381 b 790 429 829 411 811 429 l 767 429 b 756 418 761 429 756 424 l 756 319 b 767 308 756 314 761 308 b 776 319 772 308 776 314 l 776 408 l 790 408 b 808 390 800 408 808 400 b 794 374 808 382 803 374 b 785 363 790 374 785 369 b 796 353 785 357 790 353 b 811 336 804 353 811 344 l 811 319 b 822 308 811 314 815 308 m 228 1265 b 243 1281 228 1274 235 1281 b 258 1265 251 1281 258 1274 b 243 1250 258 1257 251 1250 b 228 1265 235 1250 228 1257 m 554 378 b 567 386 560 376 565 381 b 567 392 567 389 567 390 b 528 432 567 414 549 432 b 488 392 506 432 488 414 l 488 346 b 528 306 488 324 506 306 b 567 346 549 306 567 324 b 567 351 567 347 567 350 b 554 361 565 357 560 361 b 546 349 549 360 544 354 b 546 346 546 347 546 346 b 528 326 546 335 538 326 b 508 346 517 326 508 335 l 508 392 b 528 411 508 403 517 411 b 546 392 538 411 546 403 b 546 389 546 392 546 390 b 554 378 544 383 549 378 m 332 1250 b 317 1265 324 1250 317 1257 b 332 1281 317 1274 324 1281 b 347 1265 340 1281 347 1274 b 332 1250 347 1257 340 1250 m 421 1250 b 406 1265 413 1250 406 1257 b 421 1281 406 1274 413 1281 b 436 1265 429 1281 436 1274 b 421 1250 436 1257 429 1250 m 494 1265 b 510 1281 494 1274 501 1281 b 525 1265 518 1281 525 1274 b 510 1250 525 1257 518 1250 b 494 1265 501 1250 494 1257 m 599 1250 b 583 1265 590 1250 583 1257 b 599 1281 583 1274 590 1281 b 614 1265 607 1281 614 1274 b 599 1250 614 1257 607 1250 m 686 1250 b 671 1265 678 1250 671 1257 b 686 1281 671 1274 678 1281 b 701 1265 694 1281 701 1274 b 686 1250 701 1257 694 1250 m 760 1265 b 775 1281 760 1274 767 1281 b 790 1265 783 1281 790 1274 b 775 1250 790 1257 783 1250 b 760 1265 767 1250 760 1257 m 864 1250 b 849 1265 856 1250 849 1257 b 864 1281 849 1274 856 1281 b 879 1265 872 1281 879 1274 b 864 1250 879 1257 872 1250 m 953 1250 b 938 1265 944 1250 938 1257 b 953 1281 938 1274 944 1281 b 968 1265 961 1281 968 1274 b 953 1250 968 1257 961 1250 m 1026 1265 b 1042 1281 1026 1274 1033 1281 b 1057 1265 1050 1281 1057 1274 b 1042 1250 1057 1257 1050 1250 b 1026 1265 1033 1250 1026 1257 m 1128 1250 b 1113 1265 1119 1250 1113 1257 b 1128 1281 1113 1274 1119 1281 b 1143 1265 1136 1281 1143 1274 b 1128 1250 1143 1257 1136 1250 m 1201 1265 b 1217 1281 1201 1274 1208 1281 b 1232 1265 1225 1281 1232 1274 b 1217 1250 1232 1257 1225 1250 b 1201 1265 1208 1250 1201 1257 m 1306 1250 b 1290 1265 1297 1250 1290 1257 b 1306 1281 1290 1274 1297 1281 b 1321 1265 1314 1281 1321 1274 b 1306 1250 1321 1257 1314 1250 m 1394 1250 b 1379 1265 1386 1250 1379 1257 b 1394 1281 1379 1274 1386 1281 b 1410 1265 1403 1281 1410 1274 b 1394 1250 1410 1257 1403 1250 m 1468 1265 b 1483 1281 1468 1274 1475 1281 b 1499 1265 1492 1281 1499 1274 b 1483 1250 1499 1257 1492 1250 b 1468 1265 1475 1250 1468 1257 m 199 1161 b 183 1176 190 1161 183 1168 b 199 1192 183 1185 190 1192 b 214 1176 207 1192 214 1185 b 199 1161 214 1168 207 1161 m 272 1176 b 288 1192 272 1185 279 1192 b 303 1176 296 1192 303 1185 b 288 1161 303 1168 296 1161 b 272 1176 279 1161 272 1168 m 376 1161 b 361 1176 368 1161 361 1168 b 376 1192 361 1185 368 1192 b 392 1176 385 1192 392 1185 b 376 1161 392 1168 385 1161 m 465 1161 b 450 1176 457 1161 450 1168 b 465 1192 450 1185 457 1192 b 481 1176 474 1192 481 1185 b 465 1161 481 1168 474 1161 m 539 1176 b 554 1192 539 1185 546 1192 b 569 1176 563 1192 569 1185 b 554 1161 569 1168 563 1161 b 539 1176 546 1161 539 1168 m 643 1161 b 628 1176 635 1161 628 1168 b 643 1192 628 1185 635 1192 b 658 1176 651 1192 658 1185 b 643 1161 658 1168 651 1161 m 731 1161 b 715 1176 722 1161 715 1168 b 731 1192 715 1185 722 1192 b 746 1176 739 1192 746 1185 b 731 1161 746 1168 739 1161 m 804 1176 b 819 1192 804 1185 811 1192 b 835 1176 828 1192 835 1185 b 819 1161 835 1168 828 1161 b 804 1176 811 1161 804 1168 m 908 1161 b 893 1176 900 1161 893 1168 b 908 1192 893 1185 900 1192 b 924 1176 917 1192 924 1185 b 908 1161 924 1168 917 1161 m 997 1161 b 982 1176 989 1161 982 1168 b 997 1192 982 1185 989 1192 b 1013 1176 1006 1192 1013 1185 b 997 1161 1013 1168 1006 1161 m 1071 1176 b 1086 1192 1071 1185 1078 1192 b 1101 1176 1094 1192 1101 1185 b 1086 1161 1101 1168 1094 1161 b 1071 1176 1078 1161 1071 1168 m 1172 1161 b 1157 1176 1164 1161 1157 1168 b 1172 1192 1157 1185 1164 1192 b 1188 1176 1181 1192 1188 1185 b 1172 1161 1188 1168 1181 1161 m 1246 1176 b 1261 1192 1246 1185 1253 1192 b 1276 1176 1269 1192 1276 1185 b 1261 1161 1276 1168 1269 1161 b 1246 1176 1253 1161 1246 1168 m 1350 1161 b 1335 1176 1342 1161 1335 1168 b 1350 1192 1335 1185 1342 1192 b 1365 1176 1358 1192 1365 1185 b 1350 1161 1365 1168 1358 1161 m 1439 1161 b 1424 1176 1431 1161 1424 1168 b 1439 1192 1424 1185 1431 1192 b 1454 1176 1447 1192 1454 1185 b 1439 1161 1454 1168 1447 1161 m 154 1072 b 139 1088 146 1072 139 1079 b 154 1103 139 1096 146 1103 b 169 1088 163 1103 169 1096 b 154 1072 169 1079 163 1072 m 228 1088 b 243 1103 228 1096 235 1103 b 258 1088 251 1103 258 1096 b 243 1072 258 1079 251 1072 b 228 1088 235 1072 228 1079 m 332 1072 b 317 1088 324 1072 317 1079 b 332 1103 317 1096 324 1103 b 347 1088 340 1103 347 1096 b 332 1072 347 1079 340 1072 m 421 1072 b 406 1088 413 1072 406 1079 b 421 1103 406 1096 413 1103 b 436 1088 429 1103 436 1096 b 421 1072 436 1079 429 1072 m 494 1088 b 510 1103 494 1096 501 1103 b 525 1088 518 1103 525 1096 b 510 1072 525 1079 518 1072 b 494 1088 501 1072 494 1079 m 599 1072 b 583 1088 590 1072 583 1079 b 599 1103 583 1096 590 1103 b 614 1088 607 1103 614 1096 b 599 1072 614 1079 607 1072 m 686 1072 b 671 1088 678 1072 671 1079 b 686 1103 671 1096 678 1103 b 701 1088 694 1103 701 1096 b 686 1072 701 1079 694 1072 m 760 1088 b 775 1103 760 1096 767 1103 b 790 1088 783 1103 790 1096 b 775 1072 790 1079 783 1072 b 760 1088 767 1072 760 1079 m 864 1072 b 849 1088 856 1072 849 1079 b 864 1103 849 1096 856 1103 b 879 1088 872 1103 879 1096 b 864 1072 879 1079 872 1072 m 953 1072 b 938 1088 944 1072 938 1079 b 953 1103 938 1096 944 1103 b 968 1088 961 1103 968 1096 b 953 1072 968 1079 961 1072 m 1026 1088 b 1042 1103 1026 1096 1033 1103 b 1057 1088 1050 1103 1057 1096 b 1042 1072 1057 1079 1050 1072 b 1026 1088 1033 1072 1026 1079 m 1128 1072 b 1113 1088 1119 1072 1113 1079 b 1128 1103 1113 1096 1119 1103 b 1143 1088 1136 1103 1143 1096 b 1128 1072 1143 1079 1136 1072 m 1201 1088 b 1217 1103 1201 1096 1208 1103 b 1232 1088 1225 1103 1232 1096 b 1217 1072 1232 1079 1225 1072 b 1201 1088 1208 1072 1201 1079 m 1306 1072 b 1290 1088 1297 1072 1290 1079 b 1306 1103 1290 1096 1297 1103 b 1321 1088 1314 1103 1321 1096 b 1306 1072 1321 1079 1314 1072 m 1394 1072 b 1379 1088 1386 1072 1379 1079 b 1394 1103 1379 1096 1386 1103 b 1410 1088 1403 1103 1410 1096 b 1394 1072 1410 1079 1403 1072 m 1468 1088 b 1483 1103 1468 1096 1475 1103 b 1499 1088 1492 1103 1499 1096 b 1483 1072 1499 1079 1492 1072 b 1468 1088 1475 1072 1468 1079 m 199 983 b 183 999 190 983 183 990 b 199 1014 183 1007 190 1014 b 214 999 207 1014 214 1007 b 199 983 214 990 207 983 m 272 999 b 288 1014 272 1007 279 1014 b 303 999 296 1014 303 1007 b 288 983 303 990 296 983 b 272 999 279 983 272 990 m 376 983 b 361 999 368 983 361 990 b 376 1014 361 1007 368 1014 b 392 999 385 1014 392 1007 b 376 983 392 990 385 983 m 465 983 b 450 999 457 983 450 990 b 465 1014 450 1007 457 1014 b 481 999 474 1014 481 1007 b 465 983 481 990 474 983 m 539 999 b 554 1014 539 1007 546 1014 b 569 999 563 1014 569 1007 b 554 983 569 990 563 983 b 539 999 546 983 539 990 m 643 983 b 628 999 635 983 628 990 b 643 1014 628 1007 635 1014 b 658 999 651 1014 658 1007 b 643 983 658 990 651 983 m 731 983 b 715 999 722 983 715 990 b 731 1014 715 1007 722 1014 b 746 999 739 1014 746 1007 b 731 983 746 990 739 983 m 804 999 b 819 1014 804 1007 811 1014 b 835 999 828 1014 835 1007 b 819 983 835 990 828 983 b 804 999 811 983 804 990 m 908 983 b 893 999 900 983 893 990 b 908 1014 893 1007 900 1014 b 924 999 917 1014 924 1007 b 908 983 924 990 917 983 m 997 983 b 982 999 989 983 982 990 b 997 1014 982 1007 989 1014 b 1013 999 1006 1014 1013 1007 b 997 983 1013 990 1006 983 m 1071 999 b 1086 1014 1071 1007 1078 1014 b 1101 999 1094 1014 1101 1007 b 1086 983 1101 990 1094 983 b 1071 999 1078 983 1071 990 m 1172 983 b 1157 999 1164 983 1157 990 b 1172 1014 1157 1007 1164 1014 b 1188 999 1181 1014 1188 1007 b 1172 983 1188 990 1181 983 m 1246 999 b 1261 1014 1246 1007 1253 1014 b 1276 999 1269 1014 1276 1007 b 1261 983 1276 990 1269 983 b 1246 999 1253 983 1246 990 m 1350 983 b 1335 999 1342 983 1335 990 b 1350 1014 1335 1007 1342 1014 b 1365 999 1358 1014 1365 1007 b 1350 983 1365 990 1358 983 m 1439 983 b 1424 999 1431 983 1424 990 b 1439 1014 1424 1007 1431 1014 b 1454 999 1447 1014 1454 1007 b 1439 983 1454 990 1447 983 m 154 896 b 139 911 146 896 139 903 b 154 926 139 919 146 926 b 169 911 163 926 169 919 b 154 896 169 903 163 896 m 228 911 b 243 926 228 919 235 926 b 258 911 251 926 258 919 b 243 896 258 903 251 896 b 228 911 235 896 228 903 m 332 896 b 317 911 324 896 317 903 b 332 926 317 919 324 926 b 347 911 340 926 347 919 b 332 896 347 903 340 896 m 421 896 b 406 911 413 896 406 903 b 421 926 406 919 413 926 b 436 911 429 926 436 919 b 421 896 436 903 429 896 m 494 911 b 510 926 494 919 501 926 b 525 911 518 926 525 919 b 510 896 525 903 518 896 b 494 911 501 896 494 903 m 599 896 b 583 911 590 896 583 903 b 599 926 583 919 590 926 b 614 911 607 926 614 919 b 599 896 614 903 607 896 m 686 896 b 671 911 678 896 671 903 b 686 926 671 919 678 926 b 701 911 694 926 701 919 b 686 896 701 903 694 896 m 760 911 b 775 926 760 919 767 926 b 790 911 783 926 790 919 b 775 896 790 903 783 896 b 760 911 767 896 760 903 m 864 896 b 849 911 856 896 849 903 b 864 926 849 919 856 926 b 879 911 872 926 879 919 b 864 896 879 903 872 896 m 953 896 b 938 911 944 896 938 903 b 953 926 938 919 944 926 b 968 911 961 926 968 919 b 953 896 968 903 961 896 m 1026 911 b 1042 926 1026 919 1033 926 b 1057 911 1050 926 1057 919 b 1042 896 1057 903 1050 896 b 1026 911 1033 896 1026 903 m 1128 896 b 1113 911 1119 896 1113 903 b 1128 926 1113 919 1119 926 b 1143 911 1136 926 1143 919 b 1128 896 1143 903 1136 896 m 1201 911 b 1217 926 1201 919 1208 926 b 1232 911 1225 926 1232 919 b 1217 896 1232 903 1225 896 b 1201 911 1208 896 1201 903 m 1306 896 b 1290 911 1297 896 1290 903 b 1306 926 1290 919 1297 926 b 1321 911 1314 926 1321 919 b 1306 896 1321 903 1314 896 m 1394 896 b 1379 911 1386 896 1379 903 b 1394 926 1379 919 1386 926 b 1410 911 1403 926 1410 919 b 1394 896 1410 903 1403 896 m 1468 911 b 1483 926 1468 919 1475 926 b 1499 911 1492 926 1499 919 b 1483 896 1499 903 1492 896 b 1468 911 1475 896 1468 903 m 199 807 b 183 822 190 807 183 814 b 199 838 183 831 190 838 b 214 822 207 838 214 831 b 199 807 214 814 207 807 m 272 822 b 288 838 272 831 279 838 b 303 822 296 838 303 831 b 288 807 303 814 296 807 b 272 822 279 807 272 814 m 376 807 b 361 822 368 807 361 814 b 376 838 361 831 368 838 b 392 822 385 838 392 831 b 376 807 392 814 385 807 m 465 807 b 450 822 457 807 450 814 b 465 838 450 831 457 838 b 481 822 474 838 481 831 b 465 807 481 814 474 807 m 539 822 b 554 838 539 831 546 838 b 569 822 563 838 569 831 b 554 807 569 814 563 807 b 539 822 546 807 539 814 m 643 807 b 628 822 635 807 628 814 b 643 838 628 831 635 838 b 658 822 651 838 658 831 b 643 807 658 814 651 807 m 731 807 b 715 822 722 807 715 814 b 731 838 715 831 722 838 b 746 822 739 838 746 831 b 731 807 746 814 739 807 m 908 807 b 893 822 900 807 893 814 b 908 838 893 831 900 838 b 924 822 917 838 924 831 b 908 807 924 814 917 807 m 997 807 b 982 822 989 807 982 814 b 997 838 982 831 989 838 b 1013 822 1006 838 1013 831 b 997 807 1013 814 1006 807 m 1071 822 b 1086 838 1071 831 1078 838 b 1101 822 1094 838 1101 831 b 1086 807 1101 814 1094 807 b 1071 822 1078 807 1071 814 m 1172 807 b 1157 822 1164 807 1157 814 b 1172 838 1157 831 1164 838 b 1188 822 1181 838 1188 831 b 1172 807 1188 814 1181 807 m 1246 822 b 1261 838 1246 831 1253 838 b 1276 822 1269 838 1276 831 b 1261 807 1276 814 1269 807 b 1246 822 1253 807 1246 814 m 1350 807 b 1335 822 1342 807 1335 814 b 1350 838 1335 831 1342 838 b 1365 822 1358 838 1365 831 b 1350 807 1365 814 1358 807 m 1439 807 b 1424 822 1431 807 1424 814 b 1439 838 1424 831 1431 838 b 1454 822 1447 838 1454 831 b 1439 807 1454 814 1447 807 m 154 718 b 139 733 146 718 139 725 b 154 749 139 742 146 749 b 169 733 163 749 169 742 b 154 718 169 725 163 718 m 228 733 b 243 749 228 742 235 749 b 258 733 251 749 258 742 b 243 718 258 725 251 718 b 228 733 235 718 228 725 m 332 718 b 317 733 324 718 317 725 b 332 749 317 742 324 749 b 347 733 340 749 347 742 b 332 718 347 725 340 718 m 421 718 b 406 733 413 718 406 725 b 421 749 406 742 413 749 b 436 733 429 749 436 742 b 421 718 436 725 429 718 m 494 733 b 510 749 494 742 501 749 b 525 733 518 749 525 742 b 510 718 525 725 518 718 b 494 733 501 718 494 725 m 599 718 b 583 733 590 718 583 725 b 599 749 583 742 590 749 b 614 733 607 749 614 742 b 599 718 614 725 607 718 m 686 718 b 671 733 678 718 671 725 b 686 749 671 742 678 749 b 701 733 694 749 701 742 b 686 718 701 725 694 718 m 953 718 b 938 733 944 718 938 725 b 953 749 938 742 944 749 b 968 733 961 749 968 742 b 953 718 968 725 961 718 m 1026 733 b 1042 749 1026 742 1033 749 b 1057 733 1050 749 1057 742 b 1042 718 1057 725 1050 718 b 1026 733 1033 718 1026 725 m 1128 718 b 1113 733 1119 718 1113 725 b 1128 749 1113 742 1119 749 b 1143 733 1136 749 1143 742 b 1128 718 1143 725 1136 718 m 1201 733 b 1217 749 1201 742 1208 749 b 1232 733 1225 749 1232 742 b 1217 718 1232 725 1225 718 b 1201 733 1208 718 1201 725 m 1306 718 b 1290 733 1297 718 1290 725 b 1306 749 1290 742 1297 749 b 1321 733 1314 749 1321 742 b 1306 718 1321 725 1314 718 m 1394 718 b 1379 733 1386 718 1379 725 b 1394 749 1379 742 1386 749 b 1410 733 1403 749 1410 742 b 1394 718 1410 725 1403 718 m 1468 733 b 1483 749 1468 742 1475 749 b 1499 733 1492 749 1499 742 b 1483 718 1499 725 1492 718 b 1468 733 1475 718 1468 725 m 199 629 b 183 644 190 629 183 636 b 199 660 183 653 190 660 b 214 644 207 660 214 653 b 199 629 214 636 207 629 m 272 644 b 288 660 272 653 279 660 b 303 644 296 660 303 653 b 288 629 303 636 296 629 b 272 644 279 629 272 636 m 376 629 b 361 644 368 629 361 636 b 376 660 361 653 368 660 b 392 644 385 660 392 653 b 376 629 392 636 385 629 m 465 629 b 450 644 457 629 450 636 b 465 660 450 653 457 660 b 481 644 474 660 481 653 b 465 629 481 636 474 629 m 1172 629 b 1157 644 1164 629 1157 636 b 1172 660 1157 653 1164 660 b 1188 644 1181 660 1188 653 b 1172 629 1188 636 1181 629 m 1246 644 b 1261 660 1246 653 1253 660 b 1276 644 1269 660 1276 653 b 1261 629 1276 636 1269 629 b 1246 644 1253 629 1246 636 m 1350 629 b 1335 644 1342 629 1335 636 b 1350 660 1335 653 1342 660 b 1365 644 1358 660 1365 653 b 1350 629 1365 636 1358 629 m 1439 629 b 1424 644 1431 629 1424 636 b 1439 660 1424 653 1431 660 b 1454 644 1447 660 1454 653 b 1439 629 1454 636 1447 629 m 154 543 b 139 558 146 543 139 550 b 154 574 139 567 146 574 b 169 558 163 574 169 567 b 154 543 169 550 163 543 m 228 558 b 243 574 228 567 235 574 b 258 558 251 574 258 567 b 243 543 258 550 251 543 b 228 558 235 543 228 550 m 332 543 b 317 558 324 543 317 550 b 332 574 317 567 324 574 b 347 558 340 574 347 567 b 332 543 347 550 340 543 m 1306 543 b 1290 558 1297 543 1290 550 b 1306 574 1290 567 1297 574 b 1321 558 1314 574 1321 567 b 1306 543 1321 550 1314 543 m 1394 543 b 1379 558 1386 543 1379 550 b 1394 574 1379 567 1386 574 b 1410 558 1403 574 1410 567 b 1394 543 1410 550 1403 543 m 1468 558 b 1483 574 1468 567 1475 574 b 1499 558 1492 574 1499 567 b 1483 543 1499 550 1492 543 b 1468 558 1475 543 1468 550 m 199 454 b 183 469 190 454 183 461 b 199 485 183 478 190 485 b 214 469 207 485 214 478 b 199 454 214 461 207 454 m 1439 454 b 1424 469 1431 454 1424 461 b 1439 485 1424 478 1431 485 b 1454 469 1447 485 1454 478 b 1439 454 1454 461 1447 454 m 154 365 b 139 381 146 365 139 372 b 154 396 139 389 146 396 b 169 381 163 396 169 389 b 154 365 169 372 163 365 m 1468 381 b 1483 396 1468 389 1475 396 b 1499 381 1492 396 1499 389 b 1483 365 1499 372 1492 365 b 1468 381 1475 365 1468 372 "}}}
